<svg xmlns="http://www.w3.org/2000/svg" width="500" height="500" viewBox="0 0 500 500"><path d="M168.95171,245.17021H329.04829V405.25532H168.95171Z" fill="#f60"/><path d="M313.10737,349.2645c.5854-15.91113-7.6812-24.76658-22.64264-24.76658-13.86568,0-21.92206,10.068-21.92206,25.07474,0,15.82636,8.05638,25.18356,21.9232,25.18356h23.44168v-9.14011h-6.89818c3.40412-3.35429,5.83106-9.17047,6.10028-16.35219h-.00172Zm-28.25834.30816c0-8.39433,1.78025-12.42509,5.61684-12.42509,3.83488,0,5.62142,4.03076,5.62142,12.42509s-1.78712,12.42108-5.62084,12.42108c-3.83545,0-5.61627-4.02675-5.61627-12.42108Zm-68.09975-.41929c5.53092-2.89835,7.09407-6.381,7.0242-11.84428-.08879-7.02707-5.10362-12.09459-15.33376-12.09459H185.23631v49.5904h23.62212c8.596,0,16.111-4.71183,16.111-13.904,0-6.0934-2.95219-10.0835-8.22134-11.748Zm-15.56861-12.70462h2.0529c2.8468,0,4.36815,1.27964,4.36815,3.85378,0,2.56956-1.5225,4.05539-4.36815,4.05539h-2.05176v-7.90918Zm2.72078,27.11389h-2.72078v-8.83595h2.72078c2.88345,0,4.619,1.43083,4.619,4.31315,0,2.88346-1.73558,4.5228-4.61789,4.5228Zm63.365,11.28866c-.43533-2.95563-1.94178-6.37236-4.30971-10.09611q1.4892-1.5,2.90064-3.0742l-6.0556-7.01561c-.88211.78187-1.751,1.58664-2.61768,2.38284q-1.86447-2.21672-4.02676-4.49932c4.19574-2.83878,7.03394-6.4938,7.03394-11.15235,0-5.15516-4.5669-10.36188-12.92115-10.36188-8.74775,0-13.74138,5.0452-13.74138,10.87511,0,3.30389,2.00766,6.54705,4.11441,9.10574-4.11841,2.8342-7.69265,6.72807-7.99337,11.559-.53727,8.58278,6.06018,13.172,14.1349,12.8272a21.4903,21.4903,0,0,0,10.811-3.71744,11.54774,11.54774,0,0,1,1.26817,3.16641h11.40208v.00115Zm-20.09942-35.91719a2.829,2.829,0,0,1,2.589,2.97855c0,1.02531-.63982,2.48994-3.00145,4.08117-1.43315-1.58435-2.28545-2.88574-2.28545-4.18427a2.84236,2.84236,0,0,1,2.69786-2.87543ZM242.58469,364.726c-1.32316-1.08831-2.3015-4.42027,1.42054-6.89074q2.65748,2.94447,5.14715,6.03326c-2.56327,1.684-4.80978,2.3141-6.56711.85748Z" fill="#fff"/><path d="M487,13V487H13V13H487M500,0H0V500H500V0Z" fill="#2b2b2a"/><polygon points="306.363 172.021 250 122.021 193.637 172.021 193.637 0 306.363 0 306.363 172.021" fill="#f4e2ce"/></svg>