<?xml version="1.0" standalone="no"?>
<!DOCTYPE svg PUBLIC "-//W3C//DTD SVG 20010904//EN"
 "http://www.w3.org/TR/2001/REC-SVG-20010904/DTD/svg10.dtd">
<svg version="1.0" xmlns="http://www.w3.org/2000/svg"
 width="700.000000pt" height="700.000000pt" viewBox="0 0 700.000000 700.000000"
 preserveAspectRatio="xMidYMid meet">
<metadata>
Created by potrace 1.14, written by Peter Selinger 2001-2017
</metadata>
<g transform="translate(0.000000,700.000000) scale(0.100000,-0.100000)"
fill="#000000" stroke="none">
<path d="M3415 6918 c-44 -44 -182 -181 -306 -304 l-227 -225 -103 40 c-462
175 -702 261 -709 254 -5 -4 -61 -141 -125 -303 -64 -162 -134 -341 -157 -397
l-40 -103 -47 -1 c-25 0 -64 -2 -86 -4 -22 -2 -89 -6 -150 -10 -60 -4 -137 -8
-170 -10 -33 -2 -96 -6 -140 -9 -157 -10 -260 -18 -266 -21 -3 -2 -4 -17 -3
-33 1 -16 5 -105 9 -198 3 -93 8 -207 10 -254 2 -47 6 -152 10 -235 l6 -150
-53 -26 c-56 -27 -244 -125 -418 -218 -58 -31 -149 -78 -202 -106 l-96 -50 68
-135 c37 -74 124 -250 192 -390 l125 -255 -65 -85 c-36 -47 -77 -99 -91 -116
-14 -16 -37 -45 -51 -63 -14 -19 -79 -102 -145 -185 -66 -84 -135 -170 -153
-193 l-32 -41 202 -168 c112 -92 212 -176 223 -186 11 -9 65 -55 120 -100 55
-45 105 -87 111 -92 13 -12 17 11 -70 -331 -37 -143 -69 -268 -71 -278 -2 -10
-7 -27 -10 -37 -3 -10 -7 -27 -9 -37 -2 -10 -13 -52 -24 -94 l-19 -77 126 -35
c69 -20 225 -63 346 -97 121 -34 252 -71 291 -82 l72 -21 17 -106 c25 -155 52
-309 59 -347 2 -12 7 -45 11 -75 4 -30 8 -56 10 -59 2 -3 6 -25 9 -50 4 -25 8
-52 10 -60 1 -8 6 -35 10 -60 4 -25 9 -54 11 -65 2 -11 4 -24 4 -28 1 -4 20
-5 44 -2 71 10 380 55 407 60 14 2 48 7 75 11 28 3 59 8 70 10 11 2 40 7 65
10 25 3 52 7 60 9 8 2 40 7 70 10 30 4 57 8 60 10 3 2 115 -160 248 -361 l241
-364 106 68 c58 37 163 104 233 149 192 123 322 206 363 229 34 20 37 20 60 4
13 -10 176 -115 362 -234 l338 -215 236 357 c130 196 239 360 242 364 3 3 42
0 86 -8 44 -8 101 -16 126 -19 25 -3 54 -7 65 -9 37 -7 99 -17 134 -21 19 -2
53 -7 75 -10 22 -4 51 -8 65 -11 144 -22 304 -44 306 -41 3 3 52 281 68 387 3
19 7 44 10 55 2 11 7 43 11 70 5 28 9 52 10 55 0 3 4 26 8 51 4 25 10 58 12
72 3 15 7 39 10 54 2 14 7 46 11 70 3 23 8 43 10 43 2 0 77 21 167 46 89 25
169 47 177 49 8 2 80 22 160 44 330 92 331 93 325 110 -4 9 -8 23 -10 31 -9
42 -197 776 -200 780 -6 9 7 23 70 75 33 28 62 52 65 55 3 3 123 104 268 224
235 195 261 220 249 235 -8 9 -92 115 -187 236 -95 121 -196 249 -225 285 -28
36 -65 83 -82 105 l-31 40 138 280 c76 154 163 330 193 390 l55 111 -122 63
c-66 34 -157 82 -201 105 -205 108 -383 202 -412 216 l-32 15 5 155 c2 85 6
187 9 225 2 39 7 149 10 245 4 96 8 192 10 213 4 32 2 37 -18 38 -22 0 -74 4
-222 13 -259 17 -345 23 -495 31 -66 4 -120 12 -127 18 -7 7 -42 89 -78 182
-170 437 -181 463 -216 543 -10 23 -19 49 -19 57 0 8 -4 15 -10 15 -9 0 -505
-182 -545 -200 -11 -5 -75 -30 -143 -55 l-123 -45 -87 86 c-48 47 -184 181
-302 298 -118 117 -219 215 -225 218 -5 2 -46 -31 -90 -74z"/>
</g>
</svg>
