<svg xmlns="http://www.w3.org/2000/svg" width="219.236" height="27.699" viewBox="0 0 219.236 27.699"><path d="M8.093 27.7c-2.551 0-4.537-.88-5.96-2.64C.71 23.3 0 20.851 0 17.712c0-1.986.288-3.709.864-5.168.576-1.459 1.428-2.59 2.557-3.394 1.128-.802 2.507-1.204 4.138-1.204.686 0 1.327.076 1.922.23a6.991 6.991 0 0 1 1.627.634c.49.27.92.583 1.288.938.369.356.668.736.902 1.14V0h5.389v27.332h-3.9l-.606-3.9a8.478 8.478 0 0 1-.727 1.545c-.3.503-.69.96-1.168 1.37s-1.064.74-1.757.985-1.505.367-2.436.367Zm1.177-3.863c1.348 0 2.357-.472 3.025-1.416s1.003-2.539 1.003-4.782c-.013-1.3-.166-2.38-.46-3.238-.295-.858-.734-1.499-1.316-1.922s-1.32-.634-2.215-.634c-1.165 0-2.134.445-2.907 1.333-.772.89-1.159 2.376-1.159 4.46 0 2.122.363 3.685 1.086 4.69.723 1.006 1.704 1.509 2.943 1.509ZM23.395 5.591V.754h5.222V5.59h-5.222Zm.054 21.74V8.314h5.132v19.019H23.45ZM33.326 27.332V8.313h5.168v4.507c.307-.969.74-1.818 1.297-2.548s1.235-1.3 2.032-1.71 1.698-.616 2.704-.616c.172 0 .334.01.488.027.153.019.266.046.34.083v5.113a1.22 1.22 0 0 0-.395-.092 20.217 20.217 0 0 1-.414-.036c-1.055-.086-1.956-.056-2.704.091-.748.148-1.355.399-1.82.755-.467.355-.804.79-1.012 1.305-.21.516-.313 1.092-.313 1.73v10.41h-5.37ZM57.182 27.7c-1.889 0-3.547-.396-4.976-1.187a8.373 8.373 0 0 1-3.338-3.357c-.798-1.447-1.196-3.15-1.196-5.113 0-1.9.365-3.614 1.095-5.14.73-1.527 1.78-2.735 3.154-3.624s3.035-1.333 4.984-1.333c1.938 0 3.563.408 4.874 1.223 1.313.815 2.306 1.95 2.98 3.402.675 1.453 1.012 3.13 1.012 5.031v1.453H52.988c0 .968.16 1.812.478 2.529.32.717.782 1.269 1.388 1.655.608.386 1.34.58 2.199.58.92 0 1.722-.196 2.409-.589.686-.392 1.17-1.036 1.453-1.931h4.837c-.22 1.349-.76 2.501-1.618 3.457-.859.957-1.9 1.687-3.127 2.19s-2.501.753-3.825.753Zm-4.194-11.846h7.762c0-.76-.145-1.458-.433-2.096s-.717-1.14-1.287-1.508c-.57-.368-1.285-.552-2.143-.552-.822 0-1.524.2-2.106.597a3.969 3.969 0 0 0-1.343 1.555 4.318 4.318 0 0 0-.45 2.004ZM77.928 27.7c-1.766 0-3.341-.393-4.727-1.178s-2.473-1.91-3.264-3.375c-.792-1.465-1.187-3.215-1.187-5.251 0-1.961.38-3.69 1.14-5.187.76-1.496 1.83-2.664 3.21-3.503 1.38-.84 2.989-1.26 4.828-1.26 1.593 0 2.97.324 4.13.974a7.345 7.345 0 0 1 2.74 2.63c.668 1.104 1.05 2.337 1.15 3.698h-4.47c-.086-.503-.264-1.003-.534-1.5s-.65-.907-1.14-1.232c-.49-.325-1.104-.487-1.84-.487-1.25 0-2.265.481-3.043 1.444-.78.963-1.168 2.424-1.168 4.386 0 1.852.38 3.32 1.14 4.405.76 1.086 1.82 1.628 3.182 1.628.724 0 1.327-.178 1.812-.533s.861-.782 1.13-1.278c.271-.497.442-.96.516-1.39h4.36c-.086 1.313-.467 2.5-1.141 3.56-.675 1.06-1.59 1.9-2.75 2.52-1.158.619-2.517.928-4.074.928ZM97.388 27.534c-1.68 0-2.977-.215-3.89-.644-.914-.43-1.545-1.03-1.894-1.803-.35-.772-.525-1.667-.525-2.685V12.047h-3.09V8.313h3.255l1.361-5.738h3.827v5.72h4.23v3.752h-4.23l.036 10.135c0 .466.058.812.175 1.039.116.227.3.374.551.441.251.068.574.101.966.101h2.557v3.311c-.258.11-.644.215-1.16.313-.514.098-1.238.147-2.17.147ZM119.77 27.7c-2.55 0-4.536-.88-5.958-2.64-1.422-1.76-2.133-4.209-2.133-7.348 0-1.986.288-3.709.864-5.168.576-1.459 1.428-2.59 2.557-3.394 1.128-.802 2.506-1.204 4.137-1.204.687 0 1.327.076 1.922.23s1.138.365 1.628.634c.49.27.92.583 1.288.938.367.356.668.736.9 1.14V0h5.39v27.332h-3.9l-.607-3.9a8.408 8.408 0 0 1-.725 1.545c-.3.503-.69.96-1.168 1.37-.479.411-1.065.74-1.757.985-.693.245-1.506.367-2.437.367Zm1.178-3.863c1.349 0 2.357-.472 3.026-1.416.668-.944 1.002-2.539 1.002-4.782-.012-1.3-.165-2.38-.46-3.238-.294-.858-.733-1.499-1.315-1.922-.583-.422-1.321-.634-2.217-.634-1.165 0-2.132.445-2.905 1.333-.772.89-1.16 2.376-1.16 4.46 0 2.122.363 3.685 1.087 4.69.723 1.006 1.703 1.509 2.942 1.509ZM143.7 27.7c-1.888 0-3.548-.396-4.975-1.187a8.375 8.375 0 0 1-3.34-3.357c-.796-1.447-1.195-3.15-1.195-5.113 0-1.9.366-3.614 1.095-5.14.73-1.527 1.781-2.735 3.154-3.624s3.036-1.333 4.985-1.333c1.937 0 3.561.408 4.874 1.223 1.311.815 2.305 1.95 2.98 3.402.673 1.453 1.011 3.13 1.011 5.031v1.453h-12.783c0 .968.159 1.812.478 2.529.319.717.782 1.269 1.39 1.655.606.386 1.339.58 2.197.58.92 0 1.723-.196 2.41-.589.686-.392 1.17-1.036 1.453-1.931h4.837c-.221 1.349-.761 2.501-1.619 3.457a8.445 8.445 0 0 1-3.127 2.19 9.996 9.996 0 0 1-3.826.753Zm-4.194-11.846h7.762c0-.76-.144-1.458-.432-2.096s-.718-1.14-1.288-1.508-1.284-.552-2.143-.552c-.821 0-1.523.2-2.105.597a3.969 3.969 0 0 0-1.343 1.555 4.331 4.331 0 0 0-.451 2.004ZM166.764 27.7c-.945 0-1.76-.123-2.447-.368-.687-.246-1.27-.574-1.747-.984a5.748 5.748 0 0 1-1.177-1.371 7.26 7.26 0 0 1-.717-1.545l-.608 3.9h-3.9V0h5.39v10.889c.233-.405.534-.785.902-1.141a5.998 5.998 0 0 1 1.287-.938c.49-.27 1.033-.48 1.628-.634s1.229-.23 1.903-.23c2.367 0 4.221.852 5.564 2.556 1.343 1.705 2.014 4.108 2.014 7.21 0 2.011-.306 3.765-.92 5.26s-1.52 2.658-2.721 3.486c-1.202.828-2.686 1.241-4.451 1.241Zm-1.178-3.863c1.152 0 2.112-.475 2.879-1.425.765-.95 1.15-2.541 1.15-4.773 0-1.974-.366-3.433-1.095-4.378s-1.72-1.416-2.97-1.416c-.896 0-1.638.212-2.226.635-.589.422-1.027 1.063-1.315 1.921-.288.859-.439 1.938-.45 3.238 0 2.243.334 3.838 1.002 4.782s1.676 1.416 3.025 1.416ZM178.553 5.591V.754h5.223V5.59h-5.223Zm.055 21.74V8.314h5.131v19.019h-5.13ZM196.577 27.534c-1.68 0-2.976-.215-3.89-.644-.914-.43-1.544-1.03-1.894-1.803-.35-.772-.524-1.667-.524-2.685V12.047h-3.09V8.313h3.256l1.36-5.738h3.826v5.72h4.23v3.752h-4.23l.037 10.135c0 .466.058.812.174 1.039.117.227.3.374.553.441.25.068.572.101.965.101h2.556v3.311c-.257.11-.643.215-1.158.313-.516.098-1.24.147-2.17.147ZM211.217 27.7c-1.324 0-2.597-.219-3.817-.654s-2.255-1.122-3.108-2.06-1.389-2.154-1.61-3.65h4.635c.172.674.47 1.207.893 1.6a3.69 3.69 0 0 0 1.443.836 5.27 5.27 0 0 0 1.545.249c1.03 0 1.862-.163 2.492-.487.632-.326.948-.825.948-1.5 0-.514-.187-.925-.56-1.232s-.991-.54-1.85-.699l-3.347-.699c-1.68-.355-3.031-.96-4.056-1.811-1.023-.852-1.542-2.063-1.554-3.633-.012-1.14.286-2.164.892-3.071.608-.908 1.509-1.625 2.704-2.153 1.196-.527 2.658-.79 4.387-.79 2.342 0 4.215.514 5.62 1.545 1.402 1.03 2.117 2.483 2.142 4.359h-4.489c-.134-.736-.499-1.303-1.093-1.702s-1.346-.597-2.253-.597c-.92 0-1.681.165-2.282.496s-.9.834-.9 1.509c0 .503.244.898.735 1.186.49.288 1.25.536 2.28.745l3.09.699c1.068.257 1.935.61 2.603 1.057.668.448 1.187.935 1.555 1.463.367.527.622 1.057.762 1.59a5.68 5.68 0 0 1 .212 1.444c0 1.263-.338 2.34-1.011 3.228-.675.89-1.613 1.567-2.815 2.033-1.201.465-2.6.698-4.193.698Z" style="fill:#fff"/></svg>