<?xml version="1.0" encoding="UTF-8"?>
<svg xmlns="http://www.w3.org/2000/svg" width="110.11621" height="32.66504" viewBox="0 0 110.11621 32.66504">
    <path d="m0,26.5957V0h9.78516c1.9375,0,3.67188.33398,5.20508,1.00195,1.5332.66895,2.74316,1.65234,3.63281,2.95215.88867,1.2998,1.33301,2.8877,1.33301,4.76367,0,1.76562-.39258,3.27441-1.17676,4.52441-.78516,1.25098-1.88574,2.20801-3.30176,2.87012s-3.08008.99316-4.99316.99316h-5.07617v9.49023H0Zm5.35254-13.64746h4.98438c1.34863,0,2.45215-.43164,3.31055-1.29688.8584-.86426,1.28809-1.93359,1.28809-3.20898,0-1.32422-.4541-2.37598-1.36133-3.1543-.90723-.7793-2.01074-1.16797-3.31055-1.16797h-4.91113v8.82812Z" style="fill:#fff"/>
    <path d="m28.4541,26.96387c-1.20215,0-2.29004-.22754-3.26465-.68066-.97461-.4541-1.74414-1.11328-2.30859-1.97754-.56348-.86426-.8457-1.91602-.8457-3.1543,0-2.08398.77832-3.66895,2.33594-4.75488,1.55664-1.08496,4.01562-1.64551,7.375-1.68262l2.3916-.03613v-1.14062c0-.87109-.25488-1.54199-.76367-2.01465-.50879-.47168-1.30273-.70117-2.38184-.68945-.77246.0127-1.51074.19629-2.21582.55176-.70508.35645-1.19336.97461-1.46289,1.85742h-4.46875c.07324-1.37305.47461-2.50391,1.2041-3.39258.72949-.88965,1.71387-1.55176,2.95215-1.9873,1.23828-.43457,2.6543-.65234,4.24902-.65234,1.9375,0,3.49414.24219,4.67188.72656,1.17676.48438,2.03223,1.17676,2.56543,2.07812s.7998,1.97168.7998,3.20996v13.37109h-4.4873l-.44141-3.27344c-.65039,1.37305-1.46191,2.32324-2.4375,2.85059-.97461.52734-2.13086.79102-3.4668.79102Zm1.82129-3.53125c.47754,0,.94727-.08887,1.40625-.26758.45996-.17676.87402-.41602,1.24219-.7168.36719-.30078.65918-.64062.87305-1.02051.21484-.37988.32812-.77246.34082-1.17773v-2.81348l-1.93164.03613c-.89453.0127-1.72852.12012-2.50098.32227s-1.39551.53027-1.86719.98438c-.47168.45312-.70801,1.06641-.70801,1.83887,0,.88281.30371,1.57227.91016,2.06934.60742.49609,1.35254.74512,2.23535.74512Z" style="fill:#fff"/>
    <path d="m45.94629,32.66504c-1.2998,0-2.48926-.21484-3.56836-.64355v-3.4209l1.89453.07324c.82129.04883,1.4834.00977,1.98633-.11914s.88281-.29785,1.14062-.50586c.25684-.20898.44336-.42676.56055-.65332.11621-.22656.19922-.40723.24805-.54199l.34961-1.04883-7.39355-18.22656h5.31543l4.56152,12.39648,4.59766-12.39648h5.26074l-7.70703,19.12793c-.66211,1.61816-1.36426,2.85645-2.10547,3.71484-.74219.8584-1.53906,1.44727-2.3916,1.7666-.85254.31836-1.76855.47754-2.74902.47754Z" style="fill:#fff"/>
    <path d="m70.11328,26.5957V4.78223h-8.03809V0h21.28027v4.78223h-7.85352v21.81348h-5.38867Z" style="fill:#fff"/>
    <path d="m91.83496,26.96387c-1.86328,0-3.48535-.39844-4.86426-1.19629-1.37988-.79688-2.44629-1.9248-3.2002-3.38379-.75488-1.45898-1.13184-3.1875-1.13184-5.18652s.37695-3.74609,1.13184-5.24219c.75391-1.49609,1.82031-2.66016,3.2002-3.49414,1.37891-.83398,3.00684-1.25098,4.88281-1.25098s3.50098.40723,4.87402,1.22266c1.37305.81641,2.43457,1.97168,3.18262,3.46777.74707,1.49609,1.12109,3.26172,1.12109,5.29688,0,1.91309-.36426,3.60156-1.09375,5.06738-.72949,1.46484-1.77832,2.61426-3.14551,3.44824s-3.01953,1.25098-4.95703,1.25098Zm.01855-3.99121c.94434,0,1.7041-.27637,2.28125-.82812.57617-.55176.99316-1.27832,1.25-2.17969.25781-.90137.38672-1.88477.38672-2.95215,0-1.00488-.11719-1.95508-.34961-2.85059-.2334-.89453-.6377-1.61816-1.21387-2.16992s-1.36133-.82812-2.35449-.82812c-.94434,0-1.70703.26074-2.29004.78223-.58203.52051-1.00879,1.22559-1.27832,2.11523-.26953.88867-.4043,1.87305-.4043,2.95117,0,.99316.12207,1.94727.36816,2.86035.24512.91406.65527,1.6582,1.23242,2.23438.57617.57715,1.36719.86523,2.37207.86523Z" style="fill:#fff"/>
    <path d="m104.23145,26.5957v-5.84863h5.88477v5.84863h-5.88477Z" style="fill:#fff"/>
</svg>