<svg xmlns="http://www.w3.org/2000/svg" viewBox="0 0 105 20"><path fill="#FFF" fill-rule="evenodd" d="M100.956 18.701h-4.489l-1.872-9.145-2.376 9.145h-4.416L84.538 1.06h4.273l1.536 12.217L93.299 1.06h3.072l2.353 12.289 2.208-12.289h4.008l-3.984 17.641Zm-23.889.288c-4.704 0-6.361-3.48-6.361-9.193 0-5.592 1.753-9 6.313-9 4.536 0 6.409 3.6 6.409 9 0 5.521-1.825 9.193-6.361 9.193ZM77.019 4.54c-1.728 0-2.328 1.056-2.328 5.04 0 4.489.576 5.617 2.376 5.617 1.392 0 2.352-1.128 2.352-5.617 0-3.984-.96-5.04-2.4-5.04Zm-16.92 4.104v10.057h-3.793V1.06h3.721l5.184 10.224V1.06h3.793v17.641h-3.745l-5.16-10.057Zm-14.848 4.657h-1.128v5.4h-3.817V1.06h4.369c4.848 0 6.456 2.376 6.456 5.904 0 4.032-2.016 6.337-5.88 6.337Zm-.144-8.977a7.31 7.31 0 0 0-.984.072v5.568h.72c1.752 0 2.544-.672 2.544-3 0-1.656-.624-2.64-2.28-2.64Zm-13.04 14.665c-4.704 0-6.361-3.48-6.361-9.193 0-5.592 1.753-9 6.313-9 4.536 0 6.409 3.6 6.409 9 0 5.521-1.825 9.193-6.361 9.193ZM32.019 4.54c-1.728 0-2.328 1.056-2.328 5.04 0 4.489.576 5.617 2.376 5.617 1.392 0 2.352-1.128 2.352-5.617 0-3.984-.96-5.04-2.4-5.04Zm-11.96 6.552h-3.888v7.609h-3.865V1.06h3.865v6.744h3.888V1.06h3.865v17.641h-3.865v-7.609Zm-9.032 2.929c0 3.192-2.208 5.04-5.832 5.04-1.32 0-3.24-.24-4.873-1.008l.912-3.48c.697.336 2.377.864 3.673.864 1.248 0 2.208-.288 2.208-1.248s-.624-1.464-2.928-3.073C2.267 9.772.922 8.092.922 5.908.922 3.004 2.819.82 6.035.82c1.632 0 3.48.48 4.536 1.44L9.035 5.356c-.744-.552-1.632-.888-2.52-.888-1.056 0-1.704.384-1.704 1.176 0 .912.72 1.44 2.544 2.832 2.208 1.68 3.672 2.784 3.672 5.545Z"/></svg>