<?xml version="1.0" encoding="UTF-8"?>
<svg id="Layer_1" data-name="Layer 1" xmlns="http://www.w3.org/2000/svg" width="274.503" height="121.283" viewBox="0 0 274.503 121.283">
  <path d="m243.92148,60.53151v-8.79999h-21.26001v38.95996h21.26001v-8.79999h-10.87v-7.15002h8.10999l.53003-8.79999h-8.64001v-5.40997h10.87Zm-49.47998-8.79999v9.27997h7.63v29.67999h10.87v-29.67999h7.84998v-9.27997h-26.34998Zm-12.72998,0v18.60999l-9.59003-18.60999h-10.02002v38.95996h10.44v-18.22998l9.55005,18.22998h10.06995v-38.95996h-10.44995Zm-94.41003-.37006h-9.64996l-11.98004,39.33002h10.87l1.49005-6.46997h8.15997l1.32001,6.46997h10.76001l-10.97003-39.33002Zm-7.31,24.28003l2.33002-10.07001,2.07001,10.07001h-4.40002Zm-25.38-23.90997v22.57996c0,5.14001-.64001,7.04999-3.07001,7.04999-2.54999,0-3.13-1.84998-3.13-6.98999v-22.63995h-10.81v22.20996c0,13.04004,4.03003,17.54999,13.94,17.54999,9.38,0,13.83002-4.82996,13.83002-17.54999v-22.20996h-10.76001Zm-34.29999,16.21997v7.78998h3.82001v6.05005c-.53003.09998-1.16998.09998-1.65002.09998-5.29999,0-6.45996-3.59998-6.45996-9.27002,0-7.04999,1.79999-11.34998,6.82996-11.34998,2.18005,0,3.93005.79999,6.05005,2.22998l3.75995-8.42999c-2.91998-2.64996-6.77997-3.87-10.96997-3.87-11.23999,0-16.70001,8.79999-16.70001,21.09998,0,11.71002,4.92999,18.87006,16.65002,18.87006,5.39996,0,10.01001-1.54004,12.23999-2.97003v-20.25h-13.57001Zm11.75-32.45001V5.34151h-10.39001v38.95996h19.77002l.52997-8.79999h-9.90997ZM57.39151,4.75149c-10.76001,0-14.95001,7.79999-14.95001,19.94,0,12.35004,3.97998,20.29999,15.04999,20.29999,10.71002,0,15.06-8.26996,15.06-20.29999,0-11.83002-4.45001-19.94-15.15997-19.94Zm.09998,29.90002c-3.07001,0-3.91998-2.01001-3.91998-10.54999,0-7.31.89996-9.17004,3.82001-9.17004,2.44,0,3.96997,1.96002,3.96997,9.17004,0,8.47998-1.52997,10.54999-3.87,10.54999ZM109.59153,5.34151l-4.98004,24.90997-3.70996-24.96997h-8.38l-5.19,24.70996-3.34003-24.64996h-11.5l8.10999,38.95996h11.92004l3.54999-14.89996,2.39001,14.89996h12.07996l9.92004-38.95996h-10.87Zm11.19995,69.97998c3.12-1.96002,4.66003-5.66998,4.66003-10.54999,0-7.84003-3.71002-13.03998-15.21002-13.03998h-10.17999v38.95996h9.85999v-12.39996h1.85004l4.51001,12.39996h10.59998l-6.09003-15.37Zm-10.28998-5.25h-.58002v-9.85999h1.32001c3.13,0,4.40002,1.70001,4.40002,4.56,0,4.40002-1.79999,5.29999-5.14001,5.29999ZM143.83152,5.34151h-10.23004v38.95996h9.81v-11.39996h1.70001c8.95001,0,13.83002-5.41003,13.83002-14.52002,0-7.78998-3.54999-13.03998-15.10999-13.03998Zm.38,19.08002h-.80005v-10.97003c.42004-.10999.95001-.15997,1.48004-.15997,3.39996,0,4.29999,2.12,4.29999,5.34998,0,4.45001-1.70001,5.78003-4.97998,5.78003Zm5.07996,26.93994h-9.63995l-11.98004,39.33002h10.86005l1.48999-6.46997h8.15997l1.33002,6.46997h10.76001l-10.98004-39.33002Zm-7.31,24.28003l2.33002-10.07001,2.07001,10.07001h-4.40002Zm39.67999-46.71002c3.13-1.96997,4.67004-5.67999,4.67004-10.54999,0-7.84998-3.71002-13.03998-15.22003-13.03998h-10.17999v38.95996h9.85999v-12.40997h1.86005l4.5,12.40997h10.60999l-6.10004-15.37Zm-10.27997-5.25h-.59003v-9.85999h1.33002c3.13,0,4.40002,1.69,4.40002,4.56,0,4.40002-1.80005,5.29999-5.14001,5.29999Zm18.38-18.33997v38.95996h10.64996V5.34151h-10.64996Zm36.83997,27.08002c-1.44,1.06-3.81995,2.17999-6.20996,2.17999-5.56,0-6.15002-6.31-6.15002-9.65002,0-6.31,1.85999-9.96002,5.67999-9.96002,1.79999,0,3.97003.47003,5.67004,1.64001l3.75995-8.69c-2.75-2.07001-6.62-3.13-10.75995-3.13-9.75,0-15.42004,7.95001-15.42004,20.35004,0,10.65997,4.5,19.62,15.63,19.62,4.56,0,8.64001-1.65002,11.13-3.92999l-3.33002-8.42999Zm26.44-18.28003V5.34151h-21.25v38.95996h21.25v-8.79999h-10.85999v-7.15997h8.10999l.53003-8.79999h-8.64001v-5.40002h10.85999Zm15.36005,46.39001v-8.79999h-21.26001v38.95996h21.26001v-8.79999h-10.87v-7.15002h8.10999l.52997-8.79999h-8.63995v-5.40997h10.87Z" style="fill: #fed000; fill-rule: evenodd;"/>
  <path d="m265.05249,102.8435c-.763,0-1.16599.315-1.16599.808,0,.718.673,1.054,2.22,2.311,1.92999,1.547,3.388,2.647,3.388,5.294,0,3.05-2.19901,4.778-5.78799,4.778-1.30099,0-3.185-.202-4.8-.987l.964-3.724c.606.292,2.26599.852,3.522.852.875,0,1.61499-.134,1.61499-.74,0-.695-.561-1.144-2.62399-2.602-1.75-1.234-2.961-2.961-2.961-4.935,0-2.782,1.884-4.913,5.11401-4.913,1.68301,0,3.522.538,4.55399,1.525l-1.61499,3.276c-.71799-.584-1.548-.943-2.423-.943h-.00003Zm-15.149,12.854v-16.488h4.397v12.764h4.19501l-.22501,3.724h-8.367Zm-5.61201-16.64603h-4.08997l-5.07001,16.65002h4.59998l.63-2.73999h3.45001l.56,2.73999h4.56l-4.64001-16.65002Zm-3.09998,10.28003l.98999-4.27002.87,4.27002h-1.85999Zm-11.51601-10.122h4.509v16.488h-4.509v-16.488Zm-4.336,16.488h-4.599v-12.562h-3.23v-3.926h11.149v3.926h-3.32001v12.562Zm-17.33099-7.717v7.717h-4.41901v-16.488h4.24001l4.06,7.874v-7.874h4.41901v16.488h-4.26199l-4.03799-7.717h-.00002Zm-15.008-8.771h8.996v3.724h-4.599v2.288h3.657l-.22501,3.724h-3.43201v3.028h4.599v3.724h-8.996v-16.48799h.00002Zm-1.222,12.047c0,3.05-2.19901,4.778-5.78799,4.778-1.30099,0-3.185-.202-4.8-.987l.964-3.724c.606.292,2.26601.852,3.522.852.875,0,1.61501-.134,1.61501-.74,0-.695-.561-1.144-2.62399-2.602-1.75-1.234-2.96201-2.961-2.96201-4.935,0-2.782,1.88499-4.913,5.11501-4.913,1.683,0,3.522.538,4.554,1.525l-1.61501,3.276c-.718-.584-1.548-.943-2.423-.943-.763,0-1.166.315-1.166.808,0,.718.673,1.054,2.22,2.311,1.92999,1.547,3.388,2.647,3.388,5.294h-.00002Zm-10.92101,0c0,3.05-2.198,4.778-5.787,4.778-1.30099,0-3.186-.202-4.80099-.987l.965-3.724c.605.292,2.26601.852,3.522.852.875,0,1.61501-.134,1.61501-.74,0-.695-.561-1.144-2.625-2.602-1.74899-1.234-2.961-2.961-2.961-4.935,0-2.782,1.884-4.913,5.11501-4.913,1.68201,0,3.522.538,4.554,1.525l-1.616,3.276c-.717-.584-1.547-.943-2.422-.943-.763,0-1.16701.315-1.16701.808,0,.718.673,1.054,2.22099,2.311,1.929,1.547,3.38699,2.647,3.38699,5.294Zm-20.315-12.047h8.996v3.724h-4.599v2.288h3.657l-.22501,3.724h-3.43201v3.028h4.599v3.724h-8.996v-16.48799h.00002Zm-14.556,0h8.996v3.724h-4.599v2.288h3.657l-.22501,3.724h-3.43201v3.028h4.599v3.724h-8.996v-16.48799h.00002Zm-8.72499.00201h-4.26001v16.48999h4.09998c6.01001,0,7.52002-3.02997,7.52002-8.34998,0-4.71002-1.34998-8.14001-7.35999-8.14001Zm.64996,12.87h-.56v-9.26001h.83002c1.57001,0,2.10999,1.57001,2.10999,4.44,0,2.28998-.08997,4.82001-2.38,4.82001Zm-10.52997-13.03003h-4.08002l-5.07001,16.65002h4.60004l.62-2.73999h3.45996l.56,2.73999h4.55005l-4.64001-16.65002Zm-3.09998,10.27002l.98999-4.26001.88,4.26001h-1.87Zm-9.14001-.13c1.32001-.83002,1.96997-2.39996,1.96997-4.45996,0-3.32001-1.57001-5.52002-6.44-5.52002h-4.31v16.48999h4.17999v-5.25h.78003l1.90997,5.25h4.48004l-2.57001-6.51001Zm-4.35999-2.21997h-.24005v-4.17004h.56c1.32001,0,1.86005.71002,1.86005,1.93005,0,1.85999-.76001,2.23999-2.17999,2.23999Zm-8.75303,8.72598h-4.598v-12.56199h-3.231v-3.926h11.149v3.926h-3.32s0,12.562,0,12.56199Zm-14.68697-6.506c1.31995-.83002,1.96997-2.39996,1.96997-4.45996,0-3.32001-1.57001-5.52002-6.44-5.52002h-4.29999v16.48999h4.16998v-5.25h.78003l1.90997,5.25h4.48999l-2.57996-6.51001Zm-4.35004-2.21997h-.25v-4.17004h.56c1.32001,0,1.85999.71002,1.85999,1.93005,0,1.85999-.75995,2.23999-2.16998,2.23999Zm-12.40099,9.06297c-4.194,0-5.899-1.907-5.899-7.425v-9.4h4.576v9.579c0,2.176.247,2.961,1.323,2.961,1.032,0,1.302-.807,1.302-2.983v-9.557h4.553v9.4c0,5.383-1.884,7.425-5.855,7.425Zm-13.82899-17.07298c-4.56,0-6.33002,3.29999-6.33002,8.44,0,5.21997,1.67999,8.58997,6.37,8.58997,4.53003,0,6.37-3.5,6.37-8.58997,0-5.01001-1.88-8.44-6.40997-8.44Zm.03998,12.64996c-1.29999,0-1.65997-.84998-1.65997-4.45996,0-3.10004.38-3.88,1.62-3.88,1.02997,0,1.67999.83002,1.67999,3.88,0,3.58997-.65002,4.45996-1.64001,4.45996Zm-10.51999,4.08603h-4.33v-5.81l-4.262-10.678h4.711l1.907,5.676,1.705-5.676h4.71l-4.441,10.678v5.81Zm-22.407-7.717v7.717h-4.419v-16.488h4.24l4.06,7.874v-7.874h4.419v16.488h-4.262l-4.038-7.717Zm-12.34297-9.01899c-4.56006,0-6.33002,3.29999-6.33002,8.44,0,5.21997,1.69,8.58997,6.37,8.58997,4.52997,0,6.37-3.5,6.37-8.58997,0-5.01001-1.88-8.44-6.40997-8.44Zm.03998,12.64996c-1.29999,0-1.66003-.84998-1.66003-4.45996,0-3.10004.38-3.88,1.62006-3.88,1.02997,0,1.67999.83002,1.67999,3.88,0,3.58997-.65002,4.45996-1.64001,4.45996Z" style="fill: #fff; fill-rule: evenodd;"/>
</svg>