<?xml version="1.0" encoding="UTF-8"?>
<svg id="Layer_1" data-name="Layer 1" xmlns="http://www.w3.org/2000/svg" width="94.11" height="21.3" viewBox="0 0 94.11 21.3">
  <path d="m8.92757,4.29249V1.50249c0-.45-.54-.67-.85-.35l-3.8,3.79c-.2.2-.2.51,0,.71l3.79,3.79c.32.31.86.09.86-.36v-2.79c3.73,0,6.68,3.42,5.86,7.29-.47,2.27-2.31,4.1-4.57,4.57-3.57.75-6.75-1.7-7.23-5.01-.07-.48-.49-.85-.98-.85-.6,0-1.08.53-1,1.13.62,4.39,4.8,7.64,9.53,6.72,3.12-.61,5.63-3.12,6.24-6.24.99-5.13-2.91-9.61-7.85-9.61Z" style="fill: #fff;"/>
  <g>
    <path d="m33.09847,12.42603c.7002-.35059,1.22461-.84375,1.57422-1.47754.34863-.63281.52344-1.36768.52344-2.2041,0-.84033-.17383-1.58154-.52051-2.22412s-.87012-1.146-1.57031-1.51074-1.58008-.54688-2.6377-.54688h-4.86914v13.65967h2.06055v-5.16895h2.80176c.04535,0,.08557-.005.13025-.00568l2.77795,5.17462h2.34766l-3.02698-5.52753c.14008-.05255.28076-.10449.40881-.16876Zm-5.43945-6.1958h2.58789c.68066,0,1.23047.10107,1.65137.30322.41992.20264.72852.49268.92676.87061.19727.37793.29688.82471.29688,1.34033,0,.51172-.09766.94971-.29395,1.31348-.19531.36523-.50293.64355-.92383.83398-.41992.19141-.96387.28711-1.63086.28711h-2.61426v-4.94873Z" style="fill: #fff;"/>
    <polygon points="39.39535 12.16627 45.45199 12.16627 45.45199 10.39869 39.39535 10.39869 39.39535 6.23658 45.89828 6.23658 45.89828 4.46265 37.3348 4.46265 37.3348 18.12232 45.97835 18.12232 45.97835 16.34791 39.39535 16.34791 39.39535 12.16627" style="fill: #fff;"/>
    <path d="m55.79476,5.04273c-.69824-.38672-1.57812-.58008-2.64062-.58008h-4.86914v13.65967h2.06055v-4.80273h2.80176c1.05762,0,1.9375-.19434,2.6377-.58301s1.22461-.91797,1.57422-1.58789c.34863-.66895.52344-1.42383.52344-2.26416,0-.83594-.17383-1.58838-.52051-2.25781-.34668-.66895-.86914-1.19727-1.56738-1.58398Zm-.28027,5.22217c-.19531.40527-.50195.72363-.91992.95703-.41797.23438-.96289.35059-1.63477.35059h-2.61426v-5.34229h2.58789c.68457,0,1.2373.11328,1.65723.33984.4209.22705.72852.54053.92383.94043.19629.40039.29395.8584.29395,1.37402,0,.51611-.09766.97607-.29395,1.38037Z" style="fill: #fff;"/>
    <polygon points="61.97542 4.46265 59.91488 4.46265 59.91488 18.12232 68.16488 18.12232 68.16488 16.34791 61.97542 16.34791 61.97542 4.46265" style="fill: #fff;"/>
    <path d="m74.69906,4.46265l-4.91602,13.65967h2.1875l1.25128-3.61523h5.33685l1.24878,3.61523h2.18848l-4.91602-13.65967h-2.38086Zm-.87695,8.31006l2.01758-5.8291h.10645l2.01349,5.8291h-4.13751Z" style="fill: #fff;"/>
    <polygon points="90.77035 4.46265 87.20199 10.67212 87.0555 10.67212 83.48714 4.46265 81.14632 4.46265 86.1014 12.76002 86.1014 18.12232 88.15609 18.12232 88.15609 12.76002 93.11117 4.46265 90.77035 4.46265" style="fill: #fff;"/>
  </g>
</svg>