<svg xmlns="http://www.w3.org/2000/svg" xml:space="preserve" id="Layer_1" x="0" y="0" version="1.1" viewBox="0 0 300 60.6"><style>.st0{fill:#0053a0}.st1{fill:#ee1c25}</style><path d="M30.8.6H9.2S5 0 2.5 4.1c-2.7 4.5.7 11 .7 11l9.3 15.1s1 1.2.2 2.4c-.7 1.1-2 1-2 1H.7l2.7 14.2h22.1s5.2.6 7.8-4.8c2.3-5-1-9.4-1-9.4L23 16.3s-.3-.6 0-1c.3-.3.7-.3.7-.3h9.6L30.8.6zM65.3 47.9S50 49.5 39.6 33.7C33.9 25 32.5 1.1 55.2.5c5.9 0 10.7.1 10.7.1l2.9 14.6s-5.4.1-10.1.1c-4.7 0-6.8 3.1-6.8 6.4s.4 9.7 11.3 12.2c3.7.9 6.4.1 6.4.1l-4.3 13.9zM74.1 16.4h16.4v31.1H74.1zM182.3.2l-4.5 21.1L173.7.2h-16.2l11.6 47.3h16.5l3.7-18.3 3.3 15.3 6.7-27.8L196.9.2z" class="st0"/><path d="M205.8.2 204.4 7h29.9l1.9-6.8z" class="st1"/><path d="m204 9.2-2.2 8.3h14.1l2.6-8.3z" class="st0"/><path d="m201.2 20.5-1.6 6.5H227l2-6.5z" class="st1"/><path d="M199.4 29.8h14.3l-4 17.6h-14.5z" class="st0"/><path d="M232.3 47.5h9.1L253.3.2h-8.9zM259.1.2h9l6.5 16 15.5-16h9.9l-21.8 23.9 10.3 23.3h-9.3L271.9 31l-15.5 16.4h-10.3l22.4-24.6z" class="st1"/><path d="M120.3.2h33.9l3.8 14.1h-19.7v2.6h16.9l-4.4 14h-12.7v2.3h21l-4.4 14.2h-34.3z" class="st0"/><path d="M130.6 53.1c-5-2.1-11.5-5.3-15.3-9.3-7.1-7.2-7.9-12.8-7.9-12.8s11.4-8.8 8.7-19.2C113.2 0 105.8.4 94.5.4l-20-.1-2.7 14.5s19.5-.1 22 0 5.5.2 5.4 4.1c0 3.4-7.4 7.4-7.4 7.4s-1.1 8.4 9.3 21.2c4 5 8.8 9.4 13.2 12.9l16.3-7.3z" class="st0"/></svg>