<svg xmlns="http://www.w3.org/2000/svg" width="245.966" height="22.497" data-name="Layer 2" viewBox="0 0 245.966 22.497"><g data-name="Layer 1"><path d="M0 7.93V.214h2.737c.556 0 1.053.095 1.492.285.439.19.786.47 1.038.84.253.37.379.826.379 1.367 0 .508-.115.944-.344 1.307a2.22 2.22 0 0 1-.958.832c-.41.193-.888.289-1.436.289h-1.59V7.93H0Zm1.308-3.837h1.568c.452 0 .821-.135 1.107-.406s.43-.622.43-1.056c0-.441-.15-.783-.448-1.027-.299-.244-.674-.366-1.126-.366H1.308v2.855ZM8.154 8.037c-.352 0-.668-.065-.947-.195s-.498-.317-.656-.56-.238-.54-.238-.889c0-.608.22-1.067.66-1.377.438-.31 1.138-.471 2.1-.485l.826-.022v-.373c0-.292-.086-.52-.258-.686-.173-.165-.44-.246-.804-.243-.27.004-.516.067-.736.19-.221.123-.367.328-.438.616H6.56c.021-.377.13-.693.328-.947s.468-.445.813-.571c.346-.126.744-.19 1.196-.19.526 0 .955.07 1.286.209s.574.339.731.6c.156.261.234.577.234.947V7.93h-1.093l-.107-.993c-.196.417-.445.704-.75.862a2.225 2.225 0 0 1-1.043.238Zm.422-.881c.16 0 .318-.03.475-.088.156-.059.298-.139.424-.24a1.34 1.34 0 0 0 .304-.34.779.779 0 0 0 .12-.388v-.87l-.677.01c-.335.004-.627.04-.878.107a1.219 1.219 0 0 0-.585.323c-.139.147-.208.344-.208.59 0 .28.098.5.294.658s.44.238.731.238ZM13.068 9.69c-.356 0-.672-.055-.95-.165v-.832l.555.016c.224.01.407-.002.547-.038a.87.87 0 0 0 .328-.146c.079-.063.137-.129.174-.198s.066-.129.088-.179l.144-.405-2.15-5.33h1.29l1.469 3.9 1.461-3.9h1.27l-2.273 5.72c-.17.416-.355.737-.552.963a1.598 1.598 0 0 1-.646.467 2.176 2.176 0 0 1-.755.127ZM20.111 7.93V1.382H17.71V.214h6.02v1.168h-2.316V7.93h-1.303ZM26.228 8.037c-.528 0-.987-.114-1.377-.34-.392-.225-.696-.55-.91-.973s-.323-.933-.323-1.526c0-.577.105-1.082.315-1.516s.51-.772.899-1.014c.39-.242.856-.363 1.4-.363.527 0 .984.116 1.372.347s.687.562.899.993c.212.43.317.948.317 1.553 0 .558-.1 1.05-.301 1.475a2.32 2.32 0 0 1-.88 1c-.387.243-.857.364-1.411.364Zm.004-.988c.3 0 .545-.082.74-.245.193-.164.339-.388.434-.673s.145-.608.145-.97c0-.339-.043-.65-.13-.934a1.453 1.453 0 0 0-.417-.686c-.194-.173-.451-.26-.772-.26-.302 0-.552.08-.75.239s-.343.378-.44.661c-.096.283-.144.61-.144.98 0 .334.043.644.128.93.085.287.226.518.422.694.196.176.457.264.784.264ZM32.45 1.446V.22h1.285v1.227H32.45Zm.02 6.484V2.412h1.244V7.93H32.47ZM37.315 8.037c-.384 0-.748-.062-1.091-.184a2.068 2.068 0 0 1-.865-.58c-.232-.263-.38-.603-.44-1.02h1.143a1.045 1.045 0 0 0 .711.778c.173.058.352.088.537.088.33 0 .597-.057.8-.171s.304-.29.304-.529a.537.537 0 0 0-.168-.416c-.111-.103-.294-.181-.547-.234l-1.046-.24c-.47-.104-.844-.275-1.126-.513-.28-.238-.423-.574-.426-1.008-.003-.328.078-.62.246-.876.167-.256.416-.458.747-.605.33-.148.737-.222 1.221-.222.644 0 1.16.144 1.55.43.39.286.59.695.6 1.224h-1.104a.823.823 0 0 0-.336-.557c-.185-.133-.425-.2-.72-.2-.306 0-.557.059-.753.176a.587.587 0 0 0-.293.539.45.45 0 0 0 .221.395c.148.096.373.178.675.245l.992.24c.286.072.518.168.7.288.181.122.323.254.423.398.102.144.173.292.214.443.041.151.062.29.062.419 0 .356-.092.659-.276.91-.182.25-.44.443-.773.578-.332.136-.727.204-1.182.204ZM44.754 8.037c-.353 0-.668-.065-.947-.195s-.498-.317-.657-.56-.237-.54-.237-.889c0-.608.22-1.067.66-1.377.438-.31 1.138-.471 2.099-.485l.827-.022v-.373c0-.292-.087-.52-.259-.686-.173-.165-.44-.246-.803-.243-.271.004-.516.067-.737.19-.22.123-.366.328-.437.616h-1.105c.022-.377.131-.693.328-.947s.47-.445.814-.571c.346-.126.744-.19 1.195-.19.526 0 .955.07 1.286.209s.574.339.732.6c.156.261.234.577.234.947V7.93h-1.094l-.106-.993c-.196.417-.445.704-.75.862a2.225 2.225 0 0 1-1.043.238Zm.422-.881c.159 0 .317-.03.474-.088.157-.059.298-.139.424-.24a1.34 1.34 0 0 0 .305-.34.779.779 0 0 0 .12-.388v-.87l-.678.01c-.335.004-.627.04-.878.107a1.219 1.219 0 0 0-.585.323c-.138.147-.208.344-.208.59 0 .28.099.5.294.658s.44.238.732.238ZM49.135 7.93V2.412h1.27v.79a1.742 1.742 0 0 1 .896-.731c.218-.082.471-.123.763-.123.342 0 .66.068.953.203.294.135.53.347.71.635s.27.66.27 1.115V7.93h-1.303V4.456c0-.363-.1-.632-.298-.809s-.45-.264-.753-.264c-.206 0-.402.035-.587.104-.185.07-.335.175-.451.315a.802.802 0 0 0-.173.526V7.93h-1.297ZM57.875 1.446V.22h1.286v1.227h-1.286Zm.021 6.484V2.412h1.244V7.93h-1.244ZM60.677 7.93V2.412h1.27v.79a1.742 1.742 0 0 1 .896-.731c.218-.082.471-.123.763-.123.342 0 .66.068.953.203.294.135.53.347.71.635s.27.66.27 1.115V7.93h-1.303V4.456c0-.363-.1-.632-.299-.809s-.45-.264-.752-.264c-.206 0-.402.035-.587.104-.185.07-.335.175-.452.315a.802.802 0 0 0-.172.526V7.93h-1.297ZM66.925 1.446V.22h1.286v1.227h-1.286Zm.021 6.484V2.412h1.243V7.93h-1.243ZM71.894 7.972c-.438 0-.777-.057-1.017-.173a.976.976 0 0 1-.5-.494 1.905 1.905 0 0 1-.138-.763V3.33h-.896v-.918h.933l.326-1.638h.934v1.633h1.233v.923h-1.233l.005 3.164c0 .164.019.284.056.36a.276.276 0 0 0 .181.15c.084.023.196.035.334.035h.683v.821a1.74 1.74 0 0 1-.328.078 3.726 3.726 0 0 1-.573.034ZM73.99 1.446V.22h1.286v1.227H73.99Zm.022 6.484V2.412h1.243V7.93h-1.243ZM78.339 8.037c-.353 0-.668-.065-.947-.195s-.498-.317-.657-.56-.237-.54-.237-.889c0-.608.22-1.067.66-1.377.438-.31 1.138-.471 2.099-.485l.827-.022v-.373c0-.292-.087-.52-.259-.686-.173-.165-.44-.246-.804-.243-.27.004-.515.067-.736.19-.22.123-.366.328-.437.616h-1.105c.022-.377.131-.693.328-.947s.469-.445.814-.571c.345-.126.744-.19 1.195-.19.526 0 .955.07 1.286.209s.574.339.732.6c.156.261.234.577.234.947V7.93h-1.094l-.106-.993c-.196.417-.445.704-.75.862a2.225 2.225 0 0 1-1.043.238Zm.422-.881c.159 0 .317-.03.474-.088.157-.059.298-.139.424-.24a1.34 1.34 0 0 0 .305-.34.779.779 0 0 0 .12-.388v-.87l-.678.01c-.335.004-.627.04-.878.107a1.219 1.219 0 0 0-.585.323c-.138.147-.208.344-.208.59 0 .28.099.5.294.658s.44.238.732.238ZM84.727 7.972c-.438 0-.777-.057-1.017-.173a.976.976 0 0 1-.5-.494 1.905 1.905 0 0 1-.138-.763V3.33h-.896v-.918h.933l.326-1.638h.934v1.633h1.233v.923h-1.233l.005 3.164c0 .164.019.284.056.36a.276.276 0 0 0 .181.15c.084.023.196.035.334.035h.683v.821a1.74 1.74 0 0 1-.328.078 3.726 3.726 0 0 1-.573.034ZM86.823 1.446V.22h1.286v1.227h-1.286Zm.022 6.484V2.412h1.243V7.93h-1.243ZM91.07 7.93l-2.038-5.518h1.19l1.323 3.863h.07l1.318-3.863h1.195L92.095 7.93H91.07ZM97.352 8.037c-.53 0-.998-.114-1.4-.34a2.366 2.366 0 0 1-.945-.968c-.227-.42-.339-.92-.339-1.5 0-.565.102-1.067.307-1.507.204-.44.502-.785.89-1.038.39-.252.86-.379 1.412-.379.544 0 1.001.116 1.371.347s.652.555.843.969c.193.414.288.899.288 1.454v.395h-3.814c-.004.313.046.59.148.832.104.242.257.431.46.569.202.136.453.205.752.205.306 0 .571-.069.798-.205a.999.999 0 0 0 .45-.627h1.186c-.065.383-.217.71-.457.976-.24.267-.532.47-.875.608a2.84 2.84 0 0 1-1.075.209Zm-1.393-3.373h2.594c0-.267-.048-.508-.142-.723-.095-.215-.236-.386-.425-.512s-.426-.19-.715-.19c-.284 0-.524.07-.72.208a1.309 1.309 0 0 0-.443.536c-.1.22-.149.446-.149.681ZM105.676 8.037c-.528 0-.987-.114-1.377-.34-.392-.225-.695-.55-.91-.973s-.323-.933-.323-1.526c0-.577.105-1.082.315-1.516s.51-.772.9-1.014c.389-.242.856-.363 1.4-.363.526 0 .983.116 1.37.347s.688.562.9.993c.212.43.318.948.318 1.553 0 .558-.101 1.05-.302 1.475a2.32 2.32 0 0 1-.88 1c-.387.243-.857.364-1.411.364Zm.005-.988c.298 0 .545-.082.739-.245.193-.164.339-.388.434-.673s.145-.608.145-.97c0-.339-.043-.65-.129-.934a1.453 1.453 0 0 0-.418-.686c-.194-.173-.451-.26-.771-.26-.303 0-.553.08-.75.239s-.344.378-.44.661c-.096.283-.144.61-.144.98 0 .334.043.644.128.93.085.287.225.518.421.694.196.176.458.264.785.264ZM109.945 7.93v-4.6h-1.089v-.918h1.09V1.59c0-.44.12-.78.365-1.019.243-.238.596-.357 1.058-.357h1.164l.005.886h-.768c-.21 0-.354.054-.432.162s-.118.279-.118.51v.64h1.264v.918h-1.243v4.6h-1.296ZM115.623 7.93l2.769-7.716h1.409l2.77 7.716h-1.302l-.689-1.937h-2.956l-.694 1.937h-1.307Zm2.31-3.09h2.32l-1.156-3.367-1.163 3.367ZM125.584 8.037c-.27 0-.53-.04-.781-.12s-.476-.198-.675-.353-.357-.346-.476-.573a1.716 1.716 0 0 1-.175-.796V2.412h1.301v3.634c0 .299.096.544.286.736.19.193.478.289.862.289.348 0 .628-.092.838-.275s.314-.447.314-.793v-3.59h1.292V7.93h-.998l-.144-1.078c-.068.302-.186.54-.355.712a1.41 1.41 0 0 1-.592.366 2.31 2.31 0 0 1-.697.107ZM131.95 8.037c-.385 0-.748-.062-1.092-.184a2.068 2.068 0 0 1-.864-.58c-.232-.263-.38-.603-.44-1.02h1.142a1.045 1.045 0 0 0 .712.778c.173.058.352.088.536.088.331 0 .598-.057.801-.171s.304-.29.304-.529a.537.537 0 0 0-.168-.416c-.111-.103-.294-.181-.547-.234l-1.046-.24c-.47-.104-.845-.275-1.126-.513-.28-.238-.423-.574-.427-1.008-.003-.328.078-.62.246-.876.167-.256.416-.458.747-.605.33-.148.738-.222 1.222-.222.644 0 1.16.144 1.55.43.39.286.59.695.6 1.224h-1.104a.823.823 0 0 0-.336-.557c-.185-.133-.426-.2-.72-.2-.306 0-.557.059-.753.176a.587.587 0 0 0-.293.539.45.45 0 0 0 .221.395c.148.096.372.178.675.245l.992.24c.285.072.518.168.7.288.181.122.323.254.423.398.102.144.173.292.214.443.041.151.062.29.062.419 0 .356-.092.659-.276.91-.182.25-.44.443-.773.578-.332.136-.727.204-1.182.204ZM137.506 7.972c-.438 0-.777-.057-1.017-.173a.976.976 0 0 1-.499-.494 1.905 1.905 0 0 1-.138-.763V3.33h-.897v-.918h.934l.325-1.638h.934v1.633h1.233v.923h-1.233l.005 3.164c0 .164.019.284.056.36a.276.276 0 0 0 .182.15c.084.023.195.035.334.035h.682v.821a1.74 1.74 0 0 1-.328.078 3.726 3.726 0 0 1-.573.034ZM139.603 7.93V2.412h1.243v1.195c.089-.274.216-.507.382-.701s.36-.343.584-.446a1.731 1.731 0 0 1 .917-.144c.061.007.105.02.134.038v1.243a.511.511 0 0 0-.152-.037 1.412 1.412 0 0 0-.163-.011 2.508 2.508 0 0 0-.707.032c-.204.043-.377.114-.518.216s-.246.23-.317.384-.107.336-.107.542V7.93h-1.296ZM145.339 8.037c-.353 0-.668-.065-.947-.195s-.498-.317-.657-.56-.237-.54-.237-.889c0-.608.22-1.067.66-1.377.438-.31 1.138-.471 2.099-.485l.827-.022v-.373c0-.292-.087-.52-.259-.686-.173-.165-.44-.246-.804-.243-.27.004-.515.067-.736.19-.22.123-.366.328-.437.616h-1.105c.022-.377.131-.693.328-.947s.469-.445.814-.571c.345-.126.744-.19 1.195-.19.526 0 .955.07 1.286.209s.574.339.732.6c.156.261.234.577.234.947V7.93h-1.094l-.106-.993c-.196.417-.445.704-.75.862a2.225 2.225 0 0 1-1.043.238Zm.422-.881c.159 0 .317-.03.474-.088.157-.059.298-.139.424-.24a1.34 1.34 0 0 0 .305-.34.779.779 0 0 0 .12-.388v-.87l-.678.01c-.335.004-.627.04-.878.107a1.219 1.219 0 0 0-.585.323c-.138.147-.208.344-.208.59 0 .28.099.5.294.658s.44.238.732.238ZM151.31 8.01c-.356 0-.64-.045-.854-.134a1.089 1.089 0 0 1-.48-.357 1.214 1.214 0 0 1-.208-.504 3.37 3.37 0 0 1-.048-.574V0h1.27v6.292c0 .238.05.423.147.555.097.131.257.208.477.229l.278.01v.817a3.595 3.595 0 0 1-.294.075c-.1.021-.196.032-.288.032ZM153.05 1.446V.22h1.286v1.227h-1.286Zm.021 6.484V2.412h1.243V7.93h-1.243ZM157.398 8.037c-.352 0-.668-.065-.947-.195s-.498-.317-.656-.56-.237-.54-.237-.889c0-.608.22-1.067.659-1.377.438-.31 1.138-.471 2.1-.485l.827-.022v-.373c0-.292-.087-.52-.26-.686-.172-.165-.44-.246-.803-.243-.27.004-.516.067-.736.19-.221.123-.366.328-.438.616h-1.104c.021-.377.13-.693.328-.947s.469-.445.813-.571c.346-.126.744-.19 1.196-.19.526 0 .955.07 1.286.209s.574.339.731.6c.156.261.235.577.235.947V7.93h-1.094l-.107-.993c-.196.417-.445.704-.75.862a2.225 2.225 0 0 1-1.043.238Zm.422-.881c.16 0 .318-.03.475-.088.156-.059.298-.139.424-.24a1.34 1.34 0 0 0 .304-.34.779.779 0 0 0 .12-.388v-.87l-.677.01c-.335.004-.627.04-.878.107a1.219 1.219 0 0 0-.585.323c-.139.147-.208.344-.208.59 0 .28.099.5.294.658s.44.238.731.238ZM161.78 7.93V2.412h1.27v.79a1.742 1.742 0 0 1 .896-.731c.217-.082.471-.123.763-.123.342 0 .66.068.952.203.294.135.53.347.71.635s.27.66.27 1.115V7.93h-1.302V4.456c0-.363-.1-.632-.299-.809s-.45-.264-.753-.264c-.206 0-.401.035-.587.104-.184.07-.335.175-.451.315a.802.802 0 0 0-.173.526V7.93h-1.297ZM170.717 7.93V.214h2.737c.556 0 1.053.095 1.492.285.439.19.785.47 1.037.84.253.37.38.826.38 1.367 0 .508-.115.944-.344 1.307a2.22 2.22 0 0 1-.958.832c-.41.193-.888.289-1.436.289h-1.59V7.93h-1.318Zm1.307-3.837h1.569c.452 0 .821-.135 1.107-.406s.43-.622.43-1.056c0-.441-.15-.783-.448-1.027-.3-.244-.674-.366-1.126-.366h-1.532v2.855ZM178.871 8.037c-.352 0-.668-.065-.947-.195s-.498-.317-.656-.56-.238-.54-.238-.889c0-.608.22-1.067.66-1.377.438-.31 1.138-.471 2.1-.485l.826-.022v-.373c0-.292-.087-.52-.259-.686-.172-.165-.44-.246-.803-.243-.27.004-.516.067-.737.19-.22.123-.366.328-.437.616h-1.105c.022-.377.131-.693.329-.947s.468-.445.813-.571c.346-.126.744-.19 1.195-.19.527 0 .955.07 1.286.209s.575.339.732.6c.156.261.234.577.234.947V7.93h-1.093l-.107-.993c-.196.417-.445.704-.75.862a2.225 2.225 0 0 1-1.043.238Zm.422-.881c.16 0 .317-.03.475-.088.156-.059.297-.139.423-.24a1.34 1.34 0 0 0 .305-.34.779.779 0 0 0 .12-.388v-.87l-.678.01c-.334.004-.626.04-.877.107a1.219 1.219 0 0 0-.585.323c-.14.147-.208.344-.208.59 0 .28.098.5.294.658s.439.238.731.238ZM183.785 9.69c-.356 0-.673-.055-.95-.165v-.832l.555.016c.224.01.407-.002.547-.038a.87.87 0 0 0 .328-.146c.079-.063.136-.129.173-.198s.067-.129.088-.179l.145-.405-2.15-5.33h1.29l1.468 3.9 1.462-3.9h1.27l-2.273 5.72c-.17.416-.355.737-.552.963a1.598 1.598 0 0 1-.646.467 2.176 2.176 0 0 1-.755.127ZM188.94 7.93V2.412h1.264v.79c.16-.242.378-.452.653-.63.277-.177.627-.267 1.055-.267a1.953 1.953 0 0 1 1.155.4c.172.132.31.296.413.492.175-.26.407-.473.697-.64.29-.168.616-.252.98-.252.198 0 .404.032.615.096s.407.171.584.32.323.354.433.612c.11.258.165.58.165.968V7.93h-1.297V4.456c0-.274-.048-.49-.143-.646a.814.814 0 0 0-.371-.333 1.2 1.2 0 0 0-.483-.1c-.153 0-.312.031-.477.092-.166.06-.307.16-.422.299s-.174.325-.174.56V7.93h-1.296V4.248c0-.192-.05-.352-.15-.48s-.225-.226-.376-.291a1.151 1.151 0 0 0-.461-.1c-.16 0-.324.035-.489.102a.998.998 0 0 0-.414.31c-.11.139-.165.318-.165.539V7.93h-1.297ZM200.786 8.037c-.53 0-.997-.114-1.4-.34a2.366 2.366 0 0 1-.945-.968c-.226-.42-.338-.92-.338-1.5 0-.565.101-1.067.306-1.507.204-.44.502-.785.89-1.038.39-.252.861-.379 1.413-.379.544 0 1 .116 1.371.347s.651.555.843.969c.192.414.288.899.288 1.454v.395h-3.815c-.004.313.046.59.149.832s.257.431.459.569c.203.136.454.205.753.205.305 0 .571-.069.798-.205a.999.999 0 0 0 .45-.627h1.185c-.064.383-.216.71-.457.976-.24.267-.53.47-.875.608a2.84 2.84 0 0 1-1.075.209Zm-1.392-3.373h2.593c0-.267-.048-.508-.141-.723-.095-.215-.237-.386-.425-.512s-.427-.19-.715-.19c-.284 0-.524.07-.72.208a1.309 1.309 0 0 0-.443.536c-.1.22-.15.446-.15.681ZM204.451 7.93V2.412h1.27v.79a1.742 1.742 0 0 1 .896-.731c.218-.082.472-.123.764-.123.342 0 .659.068.952.203.294.135.53.347.71.635s.27.66.27 1.115V7.93h-1.302V4.456c0-.363-.1-.632-.3-.809s-.45-.264-.752-.264c-.206 0-.401.035-.587.104-.185.07-.335.175-.451.315a.802.802 0 0 0-.173.526V7.93h-1.297ZM212.707 7.972c-.437 0-.776-.057-1.017-.173a.976.976 0 0 1-.499-.494 1.905 1.905 0 0 1-.138-.763V3.33h-.897v-.918h.934l.325-1.638h.935v1.633h1.232v.923h-1.232l.005 3.164c0 .164.018.284.055.36a.276.276 0 0 0 .182.15c.084.023.195.035.334.035h.682v.821a1.74 1.74 0 0 1-.328.078 3.726 3.726 0 0 1-.573.034ZM216.89 8.037c-.384 0-.747-.062-1.091-.184a2.068 2.068 0 0 1-.864-.58c-.233-.263-.38-.603-.44-1.02h1.142a1.045 1.045 0 0 0 .712.778c.172.058.351.088.536.088.33 0 .597-.057.8-.171s.304-.29.304-.529a.537.537 0 0 0-.168-.416c-.111-.103-.294-.181-.547-.234l-1.046-.24c-.47-.104-.844-.275-1.125-.513-.28-.238-.423-.574-.427-1.008-.003-.328.078-.62.246-.876.167-.256.416-.458.747-.605.33-.148.737-.222 1.222-.222.643 0 1.16.144 1.55.43.389.286.59.695.6 1.224h-1.105a.823.823 0 0 0-.335-.557c-.186-.133-.426-.2-.721-.2-.306 0-.557.059-.753.176a.587.587 0 0 0-.293.539.45.45 0 0 0 .222.395c.147.096.372.178.674.245l.993.24c.285.072.517.168.699.288.181.122.323.254.424.398.101.144.173.292.214.443.04.151.061.29.061.419 0 .356-.092.659-.275.91-.183.25-.44.443-.774.578-.332.136-.726.204-1.181.204ZM222.93 7.93V.214h2.738c.556 0 1.053.095 1.492.285.439.19.785.47 1.037.84.253.37.38.826.38 1.367 0 .508-.115.944-.345 1.307a2.22 2.22 0 0 1-.958.832c-.409.193-.887.289-1.435.289h-1.59V7.93h-1.318Zm1.308-3.837h1.569c.452 0 .82-.135 1.107-.406s.43-.622.43-1.056c0-.441-.15-.783-.448-1.027-.3-.244-.674-.366-1.126-.366h-1.532v2.855ZM231.206 8.01c-.355 0-.64-.045-.853-.134a1.089 1.089 0 0 1-.48-.357 1.214 1.214 0 0 1-.209-.504 3.37 3.37 0 0 1-.048-.574V0h1.27v6.292c0 .238.05.423.147.555.098.131.257.208.478.229l.277.01v.817a3.595 3.595 0 0 1-.294.075c-.1.021-.195.032-.288.032ZM234.904 8.037c-.27 0-.53-.04-.78-.12s-.477-.198-.676-.353-.357-.346-.475-.573a1.716 1.716 0 0 1-.176-.796V2.412h1.302v3.634c0 .299.095.544.286.736.19.193.477.289.861.289.349 0 .628-.092.838-.275s.314-.447.314-.793v-3.59h1.292V7.93h-.998l-.144-1.078c-.068.302-.186.54-.355.712a1.41 1.41 0 0 1-.591.366 2.31 2.31 0 0 1-.698.107ZM241.27 8.037c-.384 0-.748-.062-1.091-.184a2.068 2.068 0 0 1-.865-.58c-.232-.263-.38-.603-.44-1.02h1.143a1.045 1.045 0 0 0 .712.778c.172.058.351.088.536.088.33 0 .597-.057.8-.171s.304-.29.304-.529a.537.537 0 0 0-.168-.416c-.111-.103-.294-.181-.547-.234l-1.046-.24c-.47-.104-.844-.275-1.126-.513-.28-.238-.422-.574-.426-1.008-.003-.328.078-.62.246-.876.167-.256.416-.458.747-.605.33-.148.737-.222 1.221-.222.644 0 1.16.144 1.55.43.39.286.59.695.6 1.224h-1.104a.823.823 0 0 0-.336-.557c-.185-.133-.425-.2-.72-.2-.306 0-.557.059-.753.176a.587.587 0 0 0-.293.539.45.45 0 0 0 .222.395c.147.096.372.178.674.245l.993.24c.285.072.517.168.699.288.181.122.323.254.424.398.101.144.172.292.213.443.041.151.062.29.062.419 0 .356-.092.659-.275.91-.183.25-.44.443-.774.578-.332.136-.726.204-1.182.204ZM244.498 7.93V6.436h1.468V7.93h-1.468ZM0 20.736v-7.715h3.133c.59 0 1.077.09 1.459.274.383.184.666.441.851.774.185.332.278.721.278 1.166 0 .412-.068.759-.203 1.037-.135.28-.311.508-.526.684a3.06 3.06 0 0 1-.691.43l1.472 3.35H4.42l-1.33-3.132H1.298v3.132H0Zm1.297-4.162h1.542c.491 0 .874-.114 1.15-.342.276-.227.413-.544.413-.95 0-.398-.128-.705-.383-.922-.257-.217-.595-.326-1.014-.326H1.297v2.54ZM9.265 20.843c-.528 0-.987-.113-1.377-.339-.392-.226-.696-.55-.91-.974s-.323-.932-.323-1.526c0-.576.105-1.081.315-1.515s.51-.772.9-1.014c.389-.242.856-.363 1.4-.363.526 0 .983.116 1.37.347s.688.562.9.993c.212.43.317.947.317 1.552 0 .559-.1 1.05-.301 1.476a2.32 2.32 0 0 1-.88 1c-.387.242-.857.363-1.411.363Zm.005-.987c.298 0 .544-.082.739-.246.193-.163.339-.387.434-.672s.145-.608.145-.971c0-.338-.043-.65-.129-.934a1.453 1.453 0 0 0-.418-.686c-.194-.172-.451-.259-.771-.259-.303 0-.553.08-.75.238s-.344.38-.44.662c-.097.283-.144.61-.144.979 0 .334.043.645.127.93.085.288.226.519.422.695.196.176.457.264.785.264ZM14.632 20.816c-.356 0-.64-.044-.854-.133a1.089 1.089 0 0 1-.48-.357 1.214 1.214 0 0 1-.208-.505 3.37 3.37 0 0 1-.048-.573v-6.441h1.27v6.291c0 .238.05.423.147.555.098.132.257.208.478.23l.277.01v.816a3.595 3.595 0 0 1-.294.075c-.1.022-.195.032-.288.032ZM17.854 20.816c-.355 0-.64-.044-.853-.133a1.089 1.089 0 0 1-.48-.357 1.214 1.214 0 0 1-.209-.505 3.37 3.37 0 0 1-.047-.573v-6.441h1.27v6.291c0 .238.049.423.147.555.097.132.256.208.477.23l.278.01v.816a3.595 3.595 0 0 1-.294.075c-.1.022-.196.032-.289.032ZM21.665 20.843c-.527 0-.986-.113-1.377-.339-.392-.226-.695-.55-.91-.974s-.322-.932-.322-1.526c0-.576.104-1.081.314-1.515s.51-.772.9-1.014.856-.363 1.4-.363c.526 0 .983.116 1.371.347s.688.562.9.993c.211.43.317.947.317 1.552 0 .559-.1 1.05-.302 1.476a2.32 2.32 0 0 1-.88 1c-.387.242-.856.363-1.411.363Zm.005-.987c.299 0 .545-.082.74-.246.193-.163.338-.387.434-.672s.144-.608.144-.971c0-.338-.043-.65-.129-.934a1.453 1.453 0 0 0-.418-.686c-.194-.172-.45-.259-.771-.259-.303 0-.553.08-.75.238s-.344.38-.44.662c-.096.283-.144.61-.144.979 0 .334.043.645.128.93.085.288.225.519.422.695.195.176.457.264.784.264ZM27.443 20.843c-.27 0-.53-.04-.78-.12s-.476-.198-.676-.352-.357-.346-.475-.574a1.716 1.716 0 0 1-.176-.795v-3.783h1.302v3.634c0 .298.095.544.286.736.19.192.477.288.861.288.349 0 .628-.091.838-.274s.314-.448.314-.793V15.22h1.292v5.517h-.998l-.144-1.078c-.067.303-.186.54-.355.713a1.41 1.41 0 0 1-.591.365 2.31 2.31 0 0 1-.698.107ZM33.911 20.779c-.437 0-.776-.058-1.016-.174a.976.976 0 0 1-.5-.493 1.905 1.905 0 0 1-.138-.763v-3.212h-.897v-.918h.934l.325-1.638h.935v1.632h1.232v.924h-1.232l.005 3.164c0 .163.018.283.055.36a.276.276 0 0 0 .182.15c.084.022.195.034.334.034h.683v.822a1.74 1.74 0 0 1-.329.077 3.726 3.726 0 0 1-.573.035ZM40.715 20.779c-.438 0-.777-.058-1.017-.174a.976.976 0 0 1-.499-.493 1.905 1.905 0 0 1-.138-.763v-3.212h-.897v-.918h.934l.325-1.638h.934v1.632h1.233v.924h-1.233l.005 3.164c0 .163.019.283.056.36a.276.276 0 0 0 .182.15c.084.022.195.034.334.034h.682v.822a1.74 1.74 0 0 1-.328.077 3.726 3.726 0 0 1-.573.035ZM42.812 14.253v-1.227h1.286v1.227h-1.286Zm.021 6.483V15.22h1.243v5.517h-1.243ZM45.612 20.736V15.22h1.265v.79c.16-.242.378-.452.653-.63.277-.178.627-.267 1.055-.267a1.953 1.953 0 0 1 1.155.4c.172.132.31.296.413.491.175-.26.407-.473.697-.64.29-.167.616-.251.98-.251.198 0 .403.032.615.096s.407.17.584.32.323.353.433.611c.11.258.165.581.165.969v3.628H52.33v-3.473c0-.274-.048-.49-.143-.646a.814.814 0 0 0-.372-.334 1.2 1.2 0 0 0-.482-.098c-.153 0-.312.03-.478.09-.166.06-.306.16-.421.3s-.174.325-.174.56v3.601h-1.296v-3.682c0-.192-.05-.352-.15-.48s-.225-.225-.376-.29a1.151 1.151 0 0 0-.461-.1c-.16 0-.324.034-.489.102a.998.998 0 0 0-.414.31c-.11.138-.165.318-.165.538v3.602h-1.297ZM57.458 20.843c-.53 0-.997-.113-1.4-.339a2.366 2.366 0 0 1-.945-.968c-.226-.42-.339-.92-.339-1.5 0-.565.102-1.068.307-1.507.204-.44.502-.785.89-1.038.39-.253.861-.38 1.413-.38.544 0 1 .117 1.37.348s.652.554.844.968c.192.415.288.9.288 1.454v.395H56.07c-.004.313.046.59.149.833.103.242.257.431.459.568.203.137.454.205.753.205.305 0 .57-.068.797-.205a.999.999 0 0 0 .45-.627h1.186c-.064.384-.217.71-.457.977-.24.266-.531.47-.875.608a2.84 2.84 0 0 1-1.075.208Zm-1.393-3.372h2.594c0-.267-.048-.508-.141-.723-.095-.216-.237-.386-.425-.513s-.427-.19-.715-.19c-.284 0-.524.07-.72.209a1.309 1.309 0 0 0-.443.536c-.1.22-.15.446-.15.68ZM61.616 20.736v-4.6h-1.089v-.917h1.09v-.822c0-.441.12-.78.364-1.02.244-.237.597-.356 1.059-.356h1.164l.005.885h-.769c-.21 0-.353.054-.431.163s-.118.278-.118.51v.64h1.264v.918h-1.243v4.6h-1.296ZM65.175 20.736V15.22h1.243v1.195c.089-.274.217-.508.382-.702s.36-.342.584-.445a1.731 1.731 0 0 1 .918-.144c.06.007.104.02.134.037v1.243a.511.511 0 0 0-.153-.037 1.412 1.412 0 0 0-.163-.01 2.508 2.508 0 0 0-.707.031c-.204.043-.377.115-.517.217s-.247.229-.318.384-.106.335-.106.541v3.207h-1.297ZM70.911 20.843c-.352 0-.668-.065-.947-.195s-.498-.316-.656-.56-.238-.54-.238-.888c0-.609.22-1.068.66-1.377.438-.31 1.138-.471 2.1-.486l.826-.021v-.374c0-.291-.087-.52-.259-.685-.172-.166-.44-.247-.803-.243-.27.004-.516.067-.737.19-.22.122-.366.327-.437.616h-1.105c.022-.378.131-.693.329-.947s.468-.445.813-.572c.346-.126.744-.19 1.195-.19.527 0 .955.07 1.286.21s.575.338.732.6c.156.261.234.577.234.947v3.868h-1.093l-.107-.992c-.196.416-.445.703-.75.861a2.225 2.225 0 0 1-1.043.238Zm.422-.88c.16 0 .317-.03.475-.088.156-.06.297-.14.423-.24a1.34 1.34 0 0 0 .305-.34.779.779 0 0 0 .12-.389v-.87l-.677.01c-.335.004-.627.04-.878.108a1.219 1.219 0 0 0-.585.323c-.139.147-.208.344-.208.589 0 .281.098.5.294.66s.439.236.731.236ZM75.292 20.736V15.22h1.265v.79c.16-.242.378-.452.653-.63.276-.178.627-.267 1.055-.267a1.953 1.953 0 0 1 1.155.4c.172.132.31.296.413.491.175-.26.406-.473.696-.64.29-.167.617-.251.98-.251.199 0 .404.032.616.096s.406.17.584.32.322.353.433.611c.11.258.165.581.165.969v3.628H82.01v-3.473c0-.274-.048-.49-.144-.646a.814.814 0 0 0-.37-.334 1.2 1.2 0 0 0-.483-.098c-.154 0-.313.03-.478.09-.166.06-.306.16-.422.3s-.174.325-.174.56v3.601h-1.295v-3.682c0-.192-.05-.352-.15-.48s-.225-.225-.377-.29a1.151 1.151 0 0 0-.46-.1c-.16 0-.324.034-.489.102a.998.998 0 0 0-.414.31c-.11.138-.165.318-.165.538v3.602h-1.297ZM87.138 20.843c-.53 0-.997-.113-1.4-.339a2.366 2.366 0 0 1-.945-.968c-.227-.42-.339-.92-.339-1.5 0-.565.102-1.068.307-1.507.204-.44.502-.785.89-1.038.39-.253.86-.38 1.412-.38.544 0 1.001.117 1.372.348s.65.554.842.968c.193.415.288.9.288 1.454v.395h-3.814c-.004.313.046.59.148.833.104.242.257.431.46.568.203.137.453.205.752.205.306 0 .572-.068.798-.205a.999.999 0 0 0 .45-.627h1.186c-.065.384-.217.71-.457.977-.24.266-.531.47-.875.608a2.84 2.84 0 0 1-1.075.208Zm-1.393-3.372h2.594c0-.267-.048-.508-.142-.723-.094-.216-.236-.386-.425-.513s-.426-.19-.714-.19c-.285 0-.525.07-.72.209a1.309 1.309 0 0 0-.443.536c-.1.22-.15.446-.15.68ZM92.89 20.843c-.384 0-.747-.061-1.091-.184a2.068 2.068 0 0 1-.864-.579c-.233-.263-.38-.603-.44-1.02h1.142a1.045 1.045 0 0 0 .712.777c.172.059.351.088.536.088.33 0 .597-.057.8-.17s.304-.29.304-.529a.537.537 0 0 0-.168-.416c-.111-.103-.294-.182-.547-.235l-1.046-.24c-.47-.103-.844-.274-1.125-.512-.28-.239-.423-.574-.427-1.009-.003-.327.078-.619.246-.875.167-.256.416-.458.747-.606.33-.147.737-.221 1.222-.221.643 0 1.16.143 1.55.43.389.286.59.694.6 1.224h-1.105a.823.823 0 0 0-.335-.558c-.186-.133-.426-.2-.721-.2-.306 0-.557.06-.753.177a.587.587 0 0 0-.293.539.45.45 0 0 0 .222.395c.147.095.372.177.674.245l.993.24c.285.071.517.167.699.288.181.121.323.254.424.398.101.144.173.292.214.442.04.152.061.291.061.42 0 .355-.092.659-.275.91-.183.25-.44.443-.774.578-.332.135-.726.203-1.181.203ZM100.18 20.736l-2.038-5.517h1.19l1.322 3.863h.07l1.318-3.863h1.195l-2.033 5.517h-1.024ZM105.59 20.843c-.353 0-.668-.065-.947-.195s-.498-.316-.657-.56-.237-.54-.237-.888c0-.609.22-1.068.66-1.377.438-.31 1.138-.471 2.099-.486l.827-.021v-.374c0-.291-.087-.52-.259-.685-.173-.166-.44-.247-.804-.243-.27.004-.515.067-.736.19-.22.122-.366.327-.437.616h-1.105c.022-.378.131-.693.328-.947s.469-.445.814-.572c.345-.126.744-.19 1.195-.19.526 0 .955.07 1.286.21s.574.338.732.6c.156.261.234.577.234.947v3.868h-1.094l-.106-.992c-.196.416-.445.703-.75.861a2.225 2.225 0 0 1-1.043.238Zm.422-.88c.159 0 .317-.03.474-.088.157-.06.298-.14.424-.24a1.34 1.34 0 0 0 .305-.34.779.779 0 0 0 .12-.389v-.87l-.678.01c-.335.004-.627.04-.878.108a1.219 1.219 0 0 0-.585.323c-.138.147-.208.344-.208.589 0 .281.099.5.294.66s.44.236.732.236ZM109.97 20.736V15.22h1.244v1.195c.089-.274.217-.508.382-.702s.36-.342.584-.445a1.731 1.731 0 0 1 .918-.144c.06.007.104.02.133.037v1.243a.511.511 0 0 0-.152-.037 1.412 1.412 0 0 0-.163-.01 2.508 2.508 0 0 0-.707.031c-.204.043-.377.115-.518.217s-.246.229-.317.384-.106.335-.106.541v3.207h-1.297ZM115.121 22.497c-.356 0-.673-.055-.95-.165V21.5l.555.016c.224.01.407-.002.546-.038a.87.87 0 0 0 .329-.146c.079-.063.136-.129.173-.198s.067-.13.088-.179l.145-.405-2.15-5.331h1.29l1.468 3.9 1.462-3.9h1.27l-2.273 5.72c-.17.416-.355.737-.553.963a1.598 1.598 0 0 1-.645.467 2.176 2.176 0 0 1-.755.128ZM119.56 20.736v-1.494h1.467v1.494h-1.467Z" style="fill:#606060"/></g></svg>