<?xml version="1.0" encoding="UTF-8"?>
<svg id="Layer_2" xmlns="http://www.w3.org/2000/svg" viewBox="0 0 314.74 165.64">
  <g id="Layer_1-2" data-name="Layer_1">
    <g>
      <path d="M64.18,153.91c-5.15-4.68-8.42-10.3-9.83-16.85-.78-2.96-1.72-6.01-2.81-9.13-1.4-4.06-3.9-6-7.49-5.85-1.87.16-3.47.74-4.8,1.76-1.33,1.02-2.38,2.38-3.16,4.1-.31.78-.51,1.48-.58,2.11-.08.63-.2,1.33-.35,2.11-.16,1.25-.2,2.54-.12,3.86.08,1.33.04,2.61-.12,3.86v14.74c.15,1.25,0,2.34-.47,3.28s-1.09,1.87-1.87,2.81c-.94,1.4-2.26,2.11-3.98,2.11-2.66,0-5.19.04-7.61.12-2.42.08-4.95.04-7.61-.12-2.96,0-5.23-1.09-6.79-3.28l-1.4-1.64c-1.72-1.09-2.85-2.42-3.39-3.98-.55-1.56-.98-3.19-1.29-4.91-.47-3.59-.63-6.86-.47-9.83l.47-32.06h.23v-30.89c0-1.25.04-2.53.12-3.86.08-1.32.12-2.61.12-3.86,0-.78.04-1.6.12-2.46.08-.86.04-1.68-.12-2.46-.63-4.68-.86-9.44-.7-14.27.15-4.83.15-9.67,0-14.51-.16-3.28-.2-6.55-.12-9.83.08-3.28.04-6.63-.12-10.06,0-1.56.39-3.35,1.17-5.38C2.63,5.46,5.36,2.96,9.42,2.03c2.18-.31,4.33-.62,6.44-.93,2.11-.31,4.25-.47,6.44-.47h4.8c1.48,0,3-.08,4.56-.23,3.9-.31,7.72-.43,11.47-.35,3.74.08,7.49.35,11.23.82.62.16,1.25.23,1.87.23h2.11c5.15,0,9.67,1.17,13.57,3.51,1.25.78,2.57,1.4,3.98,1.87s2.81,1.09,4.21,1.87c2.49,1.25,4.6,2.77,6.32,4.56,1.72,1.8,3.35,3.79,4.92,5.97,1.87,2.81,3.43,5.77,4.68,8.89,1.25,3.12,2.03,6.48,2.34,10.06.62,4.68,1.09,9.4,1.4,14.16.31,4.76.47,9.56.47,14.39-.16,3.28-.55,6.48-1.17,9.6-.63,3.12-1.72,6.16-3.28,9.13-1.25,2.34-2.46,4.64-3.63,6.9-1.17,2.26-2.61,4.49-4.33,6.67-2.19,2.81-3.04,6.24-2.57,10.3.94,5.93,3.04,11.08,6.32,15.45,1.4,2.5,3.51,4.29,6.32,5.38,2.96,1.09,4.99,2.66,6.08,4.68,1.09,2.03,1.56,4.53,1.4,7.49-.16,2.03-.2,4.06-.12,6.08.08,2.03.19,4.06.35,6.08,0,2.96-.39,5.54-1.17,7.72-.47,1.56-1.56,2.49-3.28,2.81-1.87.31-3.79.59-5.73.82-1.95.23-3.86.2-5.73-.12-2.66-.47-5.23-.86-7.72-1.17-2.5-.31-5-1.09-7.49-2.34-2.03-.94-3.86-2.11-5.5-3.51s-3.24-2.89-4.8-4.45ZM55.52,73.64c3.75-2.81,6.16-6.16,7.25-10.06,1.25-3.74,1.91-7.49,1.99-11.23.08-3.75-.98-7.41-3.16-11-1.25-1.87-2.73-3.28-4.45-4.21-4.68-2.18-9.28-2.65-13.81-1.4-2.34.78-3.9,2.03-4.68,3.74-.93,2.34-1.72,4.65-2.34,6.9-.63,2.26-.78,4.72-.47,7.37.15.78.19,1.56.12,2.34-.08.78-.12,1.56-.12,2.34,0,1.4.04,2.81.12,4.21.08,1.4.04,2.81-.12,4.21-.31,1.72-.08,3.24.7,4.56.78,1.33,1.64,2.62,2.57,3.86l2.11,1.87c1.4,1.25,2.65,1.95,3.75,2.11,1.09.16,2.49-.23,4.21-1.17,1.09-.62,2.14-1.32,3.16-2.11,1.01-.78,2.06-1.56,3.16-2.34Z"/>
      <path d="M108.41,21.22c-.31-1.72-.59-3.39-.82-5.03-.23-1.64-.82-3.16-1.76-4.56-.31-.62-.51-1.29-.59-1.99-.08-.7-.12-1.44-.12-2.22.62-3.74,2.65-5.77,6.08-6.08h10.53c1.56,0,3.12-.23,4.68-.7,1.25-.62,2.81-.78,4.68-.47,2.96.31,4.99,1.72,6.08,4.21,1.09,2.66,2.14,5.27,3.16,7.84,1.01,2.57,1.91,5.19,2.69,7.84,1.09,3.12,2.03,6.36,2.81,9.71.78,3.36,1.79,6.59,3.04,9.71l.7,2.57c1.25,5.46,2.73,10.77,4.45,15.91,1.72,5.15,3.35,10.38,4.92,15.68.93,2.66,2.18,5.15,3.74,7.49.78.93,1.6,1.4,2.46,1.4s1.6-.54,2.22-1.64c1.4-2.81,2.73-5.62,3.98-8.42,1.25-2.81,2.26-5.77,3.04-8.89.31-1.25.62-2.38.93-3.39.31-1.01.62-2.06.94-3.16,1.09-3.59,2.07-7.21,2.93-10.88.86-3.66,1.52-7.37,1.99-11.12.31-2.18.82-4.29,1.52-6.32.7-2.03,1.44-4.06,2.22-6.08.47-1.25,1.4-2.26,2.81-3.04,1.56-.94,3.19-1.4,4.91-1.4,3.12-.31,6.16-.31,9.13,0,2.96.31,6,.63,9.13.94,1.09,0,1.95.7,2.57,2.11.78,1.72,1.32,3.51,1.64,5.38.31,1.87.7,3.67,1.17,5.38v.94c1.4,4.06,2.38,8.23,2.93,12.52.55,4.29,1.6,8.46,3.16,12.52.62,1.56,1.09,3.12,1.4,4.68.31,1.56.62,3.2.94,4.91l2.81,7.96c.15.47.54,1.17,1.17,2.11,2.65,4.06,5.3,4.06,7.96,0,1.56-2.18,2.77-4.48,3.63-6.9.86-2.42,1.67-4.87,2.46-7.37,1.09-3.59,2.3-7.14,3.63-10.65,1.32-3.51,2.53-7.06,3.63-10.65.78-2.49,1.56-4.99,2.34-7.49.78-2.49,1.09-5.07.93-7.72,0-.31.04-.54.12-.7.08-.15.12-.39.12-.7,1.25-2.65,2.18-5.42,2.81-8.31.62-2.88,1.48-5.65,2.57-8.31l1.64-3.28c.31-1.25,1.48-2.18,3.51-2.81,3.12-1.09,6.36-1.6,9.71-1.52,3.35.08,6.67.04,9.95-.12.47,0,1.01.16,1.64.47,1.09.47,2.22,1.17,3.39,2.11,1.17.93,2.14,2.07,2.93,3.39.78,1.33,1.32,2.81,1.64,4.45.31,1.64.15,3.32-.47,5.03-1.09,3.12-2.11,6.2-3.04,9.24-.93,3.04-1.87,6.12-2.81,9.24-.78,2.03-1.48,4.06-2.11,6.08-.63,2.03-1.4,4.06-2.34,6.08-.93,2.03-1.56,4.37-1.87,7.02-.31,3.12-.82,6.2-1.52,9.24-.7,3.04-1.44,6.12-2.22,9.24-.93,4.06-2.07,8.07-3.39,12.05-1.33,3.98-2.61,8-3.86,12.05-1.4,4.84-2.73,9.64-3.98,14.39-1.25,4.76-2.26,9.64-3.04,14.63-.16,1.25-.55,2.57-1.17,3.98-.94,2.19-1.76,4.41-2.46,6.67-.7,2.26-1.37,4.49-1.99,6.67-.32,2.03-.86,3.9-1.64,5.62-.78,1.72-1.56,3.51-2.34,5.38-1.56,3.74-4.45,5.93-8.66,6.55l-8.19,1.17c-1.25.31-2.54.5-3.86.59-1.33.08-2.61.27-3.86.58-2.81.78-4.99.08-6.55-2.11l-3.51-3.74c-2.19-1.87-3.74-3.98-4.68-6.32-.94-2.34-1.72-4.83-2.34-7.49-.47-2.49-1.17-4.92-2.11-7.25-.94-2.34-1.8-4.68-2.57-7.02-.32-1.09-.67-2.11-1.05-3.04-.39-.94-.74-1.95-1.05-3.04,0-.94-.55-1.4-1.64-1.4-2.81,0-5.07.86-6.79,2.57-1.56,2.03-2.73,3.98-3.51,5.85l-5.85,15.21-1.17,4.45c-.32.78-.59,1.6-.82,2.46-.23.86-.51,1.68-.82,2.46-1.4,2.65-2.65,4.33-3.74,5.03-1.09.7-3.04,1.37-5.85,1.99-2.97.78-5.77.94-8.43.47-1.72-.31-3.51-.47-5.38-.47s-3.67-.23-5.38-.7c-2.34-.47-3.9-1.48-4.68-3.04-.47-.78-1.25-1.48-2.34-2.11-1.25-.94-2.19-2.18-2.81-3.74-.31-.31-.55-.66-.7-1.05-.16-.39-.39-.74-.7-1.05-1.09-1.25-1.83-2.61-2.22-4.1-.39-1.48-.74-3-1.05-4.56-.78-3.43-1.52-6.86-2.22-10.3-.7-3.43-1.44-6.86-2.22-10.3-.47-2.18-1.09-4.33-1.87-6.44-.78-2.11-1.49-4.25-2.11-6.44-.78-3.43-1.6-6.82-2.46-10.18-.86-3.35-1.76-6.75-2.69-10.18-.63-2.34-1.25-4.6-1.87-6.79-.63-2.18-1.09-4.52-1.4-7.02-.31-1.25-.78-2.57-1.4-3.98-.78-1.25-1.44-2.61-1.99-4.09-.55-1.48-.98-3-1.29-4.56-.63-2.81-1.37-5.54-2.22-8.19-.86-2.65-1.68-5.3-2.46-7.96-.31-.94-.63-1.83-.94-2.69-.31-.86-.63-1.76-.94-2.69-1.25-2.96-2.15-5.97-2.69-9.01-.55-3.04-1.05-6.12-1.52-9.24Z"/>
      <path d="M311.08,133.78c2.03,1.25,3.19,3.2,3.51,5.85.15,1.25.19,2.42.12,3.51-.08,1.09-.12,2.19-.12,3.28v6.08c-.16,1.25-.43,2.3-.82,3.16-.39.86-1.21,1.52-2.46,1.99-.47.31-.94.58-1.4.82-.47.23-.93.51-1.4.82-.78.63-1.64,1.02-2.57,1.17-.47.16-1.25.23-2.34.23h-3.39c-1.17,0-2.3-.04-3.39-.12-1.09-.08-1.8-.19-2.11-.35-1.4-.78-2.66-1.68-3.74-2.69-1.09-1.01-1.87-2.38-2.34-4.1-.63-2.65-1.02-5.22-1.17-7.72-.16-2.49.08-5.07.7-7.72.31-.78.54-1.44.7-1.99.15-.54.39-1.13.7-1.76.31-.94,1.01-1.56,2.11-1.87,1.71-.31,3.31-.78,4.8-1.4,1.48-.62,3.08-.78,4.8-.47,1.71.31,3.39.7,5.03,1.17s3.24,1.17,4.8,2.11Z"/>
    </g>
  </g>
</svg>