<svg xmlns="http://www.w3.org/2000/svg" width="68.594" height="9.812" viewBox="0 0 68.594 9.812">
  <defs>
    <style>
      .cls-1 {
        fill: #fff;
        fill-rule: evenodd;
      }
    </style>
  </defs>
  <path id="BUY_NOW" data-name="BUY NOW" class="cls-1" d="M52.71,553.749a2.6,2.6,0,0,0,1.1-.891,2.271,2.271,0,0,0,.388-1.317,2.041,2.041,0,0,0-.883-1.782,4.226,4.226,0,0,0-2.453-.618L47,549.155l0.137,6.685L47,558.652h0.015q1.386,0.088,2.91.088a7.155,7.155,0,0,0,3.511-.684,2.277,2.277,0,0,0,1.181-2.113,2.118,2.118,0,0,0-.457-1.421,2.642,2.642,0,0,0-1.447-.773h0Zm-1.021-1.884a1.292,1.292,0,0,1-.251.839,1.479,1.479,0,0,1-.769.456l-1.31-.059,0.061-2.311h0.487a2.908,2.908,0,0,1,1.394.235,0.9,0.9,0,0,1,.388.84h0Zm-1.31,5.226c-0.152,0-.493-0.019-1.021-0.059L49.313,555.6l0.015-.868,1.6-.03a1.877,1.877,0,0,1,.9.4,0.955,0.955,0,0,1,.289.729,1.066,1.066,0,0,1-.457.927,2.185,2.185,0,0,1-1.279.324h0Zm14.669-7.936H62.535l0.107,5.963a1.812,1.812,0,0,1-.4,1.333,1.74,1.74,0,0,1-1.3.434,1.669,1.669,0,0,1-1.28-.442,1.93,1.93,0,0,1-.4-1.384l0.107-5.9H56.9l0.061,4.786-0.031,1.442a3.059,3.059,0,0,0,.967,2.533,4.333,4.333,0,0,0,2.932.883,4.634,4.634,0,0,0,3.054-.9,3.113,3.113,0,0,0,1.059-2.562l0.015-1.369Zm7.22,6.346,3.458-6.346H73.2l-0.3.8-1.615,3.224H71.112l-1.432-3.313-0.228-.707h-2.6l3.138,6.4L70,556.075l-0.122,2.577h2.468l-0.107-2.577Zm17.122-6.39-2.27.133,0.061,5.786H87.03l-3.5-5.875H80.86l0.122,6.7-0.122,2.8H83.1l-0.091-3.342,0.015-2.533h0.152l3.488,5.875h2.681l-0.091-3Zm7.1-.1a4.6,4.6,0,0,0-3.511,1.311,5.2,5.2,0,0,0-1.242,3.725,5.027,5.027,0,0,0,1.142,3.526,4.166,4.166,0,0,0,3.229,1.244,4.561,4.561,0,0,0,3.519-1.347,5.368,5.368,0,0,0,1.249-3.792,4.846,4.846,0,0,0-1.142-3.452,4.238,4.238,0,0,0-3.245-1.215h0Zm-0.213,1.914a2.033,2.033,0,0,1,1.188.3,1.762,1.762,0,0,1,.625,1.009,7.518,7.518,0,0,1,.2,1.943,5.973,5.973,0,0,1-.19,1.693,1.541,1.541,0,0,1-.617.891,2.131,2.131,0,0,1-1.158.272,2,2,0,0,1-1.181-.309,1.784,1.784,0,0,1-.632-1.023,7.673,7.673,0,0,1-.2-1.966,5.551,5.551,0,0,1,.2-1.656,1.57,1.57,0,0,1,.624-0.883,2.1,2.1,0,0,1,1.142-.273h0Zm19.331-1.767h-2.285l-0.259,1.429-1.661,5.639H111.25l-1.477-5.536-0.214-1.532h-2.5l0.609,2.268-1.447,4.8h-0.152l-1.417-5.772-0.152-1.3H102.1l2.574,9.5h2.621l1.218-4.093h0.153l1.233,4.093h2.6Z" transform="translate(-47 -549)"/>
</svg>
