<?xml version="1.0" encoding="UTF-8"?>
<svg id="app-icon" xmlns="http://www.w3.org/2000/svg" width="29.35" height="29.35" viewBox="0 0 29.35 29.35">
  <path d="m6.801.5015h15.747c3.47706,0,6.3,2.82294,6.3,6.3v15.748c0,3.47651-2.82249,6.299-6.299,6.299H6.801c-3.47651,0-6.299-2.82249-6.299-6.299V6.8005C.502,3.32399,3.32448.5015,6.801.5015Z" style="fill: #0053a0; stroke-width: 0px;"/>
  <path d="m15.4258,9.8704h4.787l-.857,2.717h-4.653l.723-2.717Zm-3.9488,12.4541s.075.009.201.006l1.397-5.87-2.417-4.477s-.094-.189,0-.316c.086-.114.242-.094.242-.094h3.17l-.897-4.791h-7.099s-1.38-.209-2.203,1.166c-.89,1.487.226,3.618.226,3.618l3.065,4.958s.317.392.075.803c-.221.374-.652.337-.652.337h-3.275l.893,4.66h7.274m7.1559-5.6865h-4.72l-1.378,5.793h4.766l1.332-5.793Zm5.0361-3.056l-9.147.001-.519,2.127,9.012-.001.654-2.127Zm2.3715-6.6755h-10.005l-.452,2.218,9.826-.001.631-2.217Z" style="fill: #fff; stroke-width: 0px;"/>
</svg>