<?xml version="1.0" encoding="UTF-8"?>
<svg id="phone" xmlns="http://www.w3.org/2000/svg" width="326.9775" height="579.892" viewBox="0 0 326.9775 579.892">
  <path d="m293.80275,154.52074v356.64297c0,19.55499-15.99899,35.55399-35.55399,35.55399H70.97676c-19.55499,0-35.554-15.99899-35.554-35.55399V68.72875c0-19.55499,15.99901-35.55499,35.554-35.55499h187.272c19.55499,0,35.55399,16,35.55399,35.55499v85.79199Zm-35.55399-134.78302H70.97676c-27.01399,0-48.991,21.97705-48.991,48.99103v442.43497c0,27.01401,21.97701,48.991,48.991,48.991h187.272c27.01398,0,48.991-21.97699,48.991-48.991V68.72875c0-27.01398-21.97702-48.99103-48.991-48.99103" style="fill: #ed1c24; stroke-width: 0px;"/>
  <path d="m204.74136,52.92241c0,6.19806-5.07101,11.26901-11.26901,11.26901h-58.116c-6.19799,0-11.26999-5.07095-11.26999-11.26901s5.072-11.26898,11.26999-11.26898h58.116c6.198,0,11.26901,5.07098,11.26901,11.26898h0m117.23637,15.8056v442.43597c0,35.14001-28.58899,63.72803-63.72894,63.72803H70.97676c-35.14001,0-63.729-28.58801-63.729-63.72803v-234.23273c-.08014-.67212-.34216-1.21045-1.17139-1.56372-.89899-.38403-1.08099-1.27405-1.07599-2.224.013-2.25104.01898-19.42505.01697-28.60205.00201-9.17596-.00397-7.698-.01697-9.94897-.005-.95001.177-1.841,1.07599-2.224.82922-.35327,1.09125-.89154,1.17139-1.56372v-11.00916c-.08014-.67218-.34216-1.21045-1.17139-1.56372-.89899-.38397-1.08099-1.27399-1.07599-2.224.013-2.25098.01898-19.42499.01697-28.60101.00201-9.177-.00397-7.69897-.01697-9.95001-.005-.94995.177-1.841,1.07599-2.224.82922-.35327,1.09125-.8916,1.17139-1.56372v-16.20331c-.08014-.67212-.34216-1.21045-1.17139-1.56372-.89899-.38403-1.08099-1.27405-1.07599-2.224.013-2.25104.01898-.53705.01697-9.71405.00201-9.177-.00397-7.698-.01697-9.94995-.005-.94904.177-1.84003,1.07599-2.224.82922-.35254,1.09125-.89069,1.17139-1.56281v-61.49933C7.24775,33.58904,35.83674,4.99999,70.97676,4.99999h187.27203c35.13995,0,63.72894,28.58905,63.72894,63.72803Zm-14.73798,0c0-27.013-21.97699-48.98999-48.99097-48.98999h-33.43762v.00128h-21.46399c-1.61102-.00299-2.88501.13202-3.633,1.88605-.60004,1.40698-1.99304,1.69196-3.47803,1.68396-3.521-.01996-17.50702-.03101-31.85999-.02698-14.35303-.00403-28.33801.00702-31.85999.02698-1.48505.008-2.87805-.27698-3.47803-1.68396-.74799-1.75403-2.02197-1.88904-3.633-1.88605h-21.46399v-.00128h-32.96442c-27.01398,0-48.99097,21.97699-48.99097,48.98999v442.43597c0,27.01398,21.97699,48.99103,48.99097,48.99103h187.27203c27.01398,0,48.99097-21.97705,48.99097-48.99103V68.72801Z" style="fill: #0053a0; stroke-width: 0px;"/>
  <path d="m199.04385,52.8723c0,3.11102-2.522,5.63306-5.63301,5.63306-3.11,0-5.632-2.52203-5.632-5.63306s2.522-5.633,5.632-5.633c3.11101,0,5.63301,2.52203,5.63301,5.633" style="fill: #fff; stroke-width: 0px;"/>
</svg>