<svg xmlns="http://www.w3.org/2000/svg" viewBox="0 0 224 49"><path fill="#0053A0" fill-rule="evenodd" d="M221.301 12.482h-9.324l-6.221 35.282h-12.915l6.22-35.282h-9.072l1.944-11.025h31.312l-1.944 11.025Zm-44.367.441c-4.536 0-7.508 4.347-8.83 11.845-.699 3.969-1.328 11.466 5.287 11.466 2.835 0 5.904-1.323 7.827-2.583l2.203 10.018c-3.439 2.709-8.635 4.662-14.053 4.662-13.231 0-16.709-10.647-14.476-23.311 2.6-14.743 11.007-24.193 22.6-24.193 4.914 0 9.291 1.26 12.134 3.717l-6.295 10.332c-1.772-1.386-4.255-1.953-6.397-1.953Zm-33.842-1.008-1.134 6.426h10.27L149.754 28.8h-9.64l-1.499 8.506h12.916l-1.844 10.458h-25.265l8.165-46.307h25.264l-1.844 10.458h-12.915Zm-22.26 35.849h-23.5l8.165-46.307h12.349l-6.321 35.849h11.782l-2.475 10.458Zm-27.09 0h-23.5l8.165-46.307h12.349l-6.321 35.849h11.782l-2.475 10.458Zm-46.008.819c-13.168 0-16.227-9.45-13.639-24.13C36.639 10.025 43.249.764 56.039.764c12.727 0 16.319 9.639 13.842 23.689-2.521 14.302-9.421 24.13-22.147 24.13Zm6.172-35.723c-3.465 0-4.925 2.205-6.458 10.9-1.788 10.143-1.202 12.538 2.452 12.538 2.772 0 5.032-2.458 6.81-12.538 1.51-8.569.094-10.9-2.804-10.9Zm-30.629.063c-4.536 0-7.508 4.347-8.83 11.845-.699 3.969-1.328 11.466 5.287 11.466 2.835 0 5.904-1.323 7.827-2.583l2.203 10.018c-3.439 2.709-8.635 4.662-14.053 4.662C2.48 48.331-.998 37.684 1.235 25.02 3.835 10.277 12.242.827 23.835.827c4.914 0 9.291 1.26 12.134 3.717l-6.295 10.332c-1.772-1.386-4.255-1.953-6.397-1.953Z"/></svg>