<svg xmlns="http://www.w3.org/2000/svg" viewBox="0 0 175 34"><path fill="#0053A0" fill-rule="evenodd" d="m165.663 33.457-7.922-15.138v15.138h-8.669V1.113h8.317l7.965 15.446V1.113h8.67v32.344h-8.361ZM135.916 1.113h8.845v32.344h-8.845V1.113Zm-16.94 16.37h13.202v6.733h-13.202v-6.733Zm.092 15.974h-10.122l-4.753-12.277h-.528v12.277h-8.933V1.113h8.933v12.453l5.237-12.453h9.506l-7.218 15.27 7.878 17.074Zm-34.542-8.053c1.98 0 3.961-.924 5.149-1.804l2.772 6.997c-2.068 1.892-5.457 3.256-9.241 3.256-9.242 0-12.982-7.437-12.982-16.282C70.224 7.274 74.933.673 83.03.673c3.432 0 6.645.88 8.933 2.596l-3.124 7.217c-1.409-.968-3.213-1.364-4.709-1.364-3.169 0-4.709 3.036-4.709 8.273 0 2.772.484 8.009 5.105 8.009ZM51.744 1.113h17.647v7.305h-9.022v4.488h7.173l-.44 7.305h-6.733v5.941h9.022v7.305H51.744V1.113ZM38.722 20.255h-5.193v13.202h-8.801V1.113h8.801v11.881h5.193V1.113h8.801v32.344h-8.801V20.255Zm-24.2 5.149c1.98 0 3.961-.924 5.149-1.804l2.772 6.997c-2.068 1.892-5.457 3.256-9.241 3.256C3.96 33.853.22 26.416.22 17.571.22 7.274 4.929.673 13.026.673c3.432 0 6.645.88 8.933 2.596l-3.124 7.217c-1.409-.968-3.213-1.364-4.709-1.364-3.169 0-4.709 3.036-4.709 8.273 0 2.772.484 8.009 5.105 8.009Z"/></svg>