<svg xmlns="http://www.w3.org/2000/svg" viewBox="0 0 74 25"><path fill="#ED1C24" fill-rule="evenodd" d="M69.367 24.421h-6.4l1.694-9.599h-3.776l-1.694 9.599h-6.399L56.941.903h6.4l-1.524 8.64h3.775l1.525-8.64h6.399l-4.149 23.518ZM49.521 6.503l-3.162 17.918h-6.56l3.162-17.918h-4.608l.988-5.6h15.903l-.988 5.6h-4.735ZM27.064 24.421 31.213.903h6.432l-4.15 23.518h-6.431Zm-15.457 0 .146-8.991-3.73 8.991h-7.2L.077.903h6.944l-.61 14.879L12.178.871h5.056l-.419 15.071L22.476.903h6.559L18.902 24.421h-7.295Z"/></svg>