<svg xmlns="http://www.w3.org/2000/svg" viewBox="0 0 203 49"><path fill="#0053A0" fill-rule="evenodd" d="m186.553 23.76 2.962 5.355 7.578-6.174 5.693 7.371-8.574 7.183 5.812 10.269h-13.797l-1.694-2.898c-4.162 2.52-8.131 3.591-12.919 3.591-9.766 0-12.976-5.733-11.71-12.916 1.244-7.056 6.436-10.773 11.82-13.797l-.567-1.071c-1.909-3.466-2.258-6.49-1.78-9.199C170.521 4.985 176.643.637 184.959.637c8.128 0 13.28 3.655 12.058 10.585-.956 5.418-4.683 8.695-10.464 12.538Zm-10.35 6.174c-2.546 1.575-3.65 2.835-3.973 4.662-.399 2.269.553 3.655 2.947 3.655 1.323 0 2.935-.567 4.711-1.701l-3.685-6.616Zm7.757-20.413c-1.575 0-2.831.693-3.165 2.583-.188 1.071.231 2.268 1.409 4.158l.341.567c2.05-1.26 3.48-2.583 3.847-4.662.288-1.638-.542-2.646-2.432-2.646Zm-38.557 38.243h-14.491l-3.705-17.578h-.756l-3.099 17.578h-12.79l8.165-46.307h12.79l-3.144 17.83 10.641-17.83h13.609l-14.187 21.862 6.967 24.445Zm-43.88-34.841c-4.536 0-7.508 4.347-8.83 11.845-.699 3.969-1.328 11.466 5.287 11.466 2.835 0 5.904-1.323 7.827-2.583l2.203 10.018c-3.439 2.709-8.635 4.662-14.053 4.662-13.231 0-16.709-10.647-14.476-23.311 2.6-14.743 11.007-24.193 22.6-24.193 4.914 0 9.291 1.26 12.134 3.717l-6.295 10.332c-1.772-1.386-4.255-1.953-6.397-1.953ZM59.406 47.764l8.165-46.307h12.664L72.07 47.764H59.406Zm-3.59 0h-23.5l8.165-46.307H52.83l-6.321 35.849h11.782l-2.475 10.458ZM23.277 12.923c-4.536 0-7.508 4.347-8.83 11.845-.699 3.969-1.328 11.466 5.287 11.466 2.835 0 5.904-1.323 7.827-2.583l2.203 10.018c-3.439 2.709-8.635 4.662-14.053 4.662C2.48 48.331-.998 37.684 1.235 25.02 3.835 10.277 12.242.827 23.835.827c4.914 0 9.291 1.26 12.134 3.717l-6.295 10.332c-1.772-1.386-4.255-1.953-6.397-1.953Z"/></svg>