<svg xmlns="http://www.w3.org/2000/svg" viewBox="0 0 178 79"><path fill="#0053A0" fill-rule="evenodd" d="M149.636 55.816h-3.36V78.39h-19.424V1.218h20.264c22.889 0 29.924 10.394 29.924 25.829 0 18.059-9.66 28.769-27.404 28.769Zm-.42-38.849c-1.05 0-2.1.105-2.94.315v21.734h1.575c6.51 0 9.87-2.625 9.87-11.444 0-6.405-1.785-10.605-8.505-10.605Zm-55.86 38.849h-3.36V78.39H70.572V1.218h20.264c22.889 0 29.924 10.394 29.924 25.829 0 18.059-9.66 28.769-27.404 28.769Zm-.42-38.849c-1.05 0-2.1.105-2.94.315v21.734h1.575c6.51 0 9.87-2.625 9.87-11.444 0-6.405-1.785-10.605-8.505-10.605ZM41.591 65.58h-16.17l-2.94 12.81H.957L24.686.483h19.11L65.53 78.39H44.216l-2.625-12.81Zm-7.665-36.958-4.62 19.949h8.715l-4.095-19.949Z"/></svg>