<?xml version="1.0" encoding="UTF-8"?>
<svg id="txt-quicker" xmlns="http://www.w3.org/2000/svg" width="276.97" height="66.047" viewBox="0 0 276.97 66.047">
  <path d="m130.42596,1.7655l-12.74365,51.112h-13.97791L116.44805,1.7655h13.97791Zm17.39832,38.3855c-7.302,0-6.00378-8.27502-4.9115-12.65601,2.06311-8.27502,5.69373-13.07404,10.70081-13.07404,2.36389,0,5.05884.62604,6.90332,2.15601l7.78064-11.40497c-2.93982-2.71204-7.66931-4.10199-13.09424-4.10199-12.79504,0-22.83679,10.43097-26.8938,26.703-3.48511,13.97797-.50427,25.72998,14.09973,25.72998,5.97998,0,11.87256-2.15601,15.88599-5.146l-1.62402-11.05701c-2.22485,1.39099-5.7179,2.85101-8.84692,2.85101ZM210.24444,1.76489h-15.021l-13.18188,19.67999,4.90674-19.67999h-14.11694l-5.04297,20.22607c-.96692,2.74835-4.09033,2.72473-7.98792,2.72473l-.0011.00104h-4.75891c-.57996,0-1.17395.47498-1.31897,1.05597s.21191,1.05603.79297,1.05603h4.75903c3.83838,0,7.20435-.09875,6.66077,2.59888l-5.84656,23.44928h14.11694l4.31091-17.29004h-6.53601c-.58105,0-.9408-.46198-.80042-1.02496l.01575-.06299c.14038-.56299.73022-1.02405,1.31128-1.02405h7.37l2.67346,19.40204h15.99414l-5.7207-26.98199L210.24444,1.76489Zm-98.61926.00006h-14.11707l-7.38599,29.62402c-1.68176,6.745-3.14014,9.24902-6.33911,9.24902-3.33789,0-3.49609-2.43402-1.81445-9.17902l7.40356-29.69403h-14.18604l-.56177,2.25305c-.77686,2.12823-1.38403,2.11188-4.96533,2.11188l-.00098.00104h-1.94312c-.57996,0-1.17395.47498-1.31897,1.05597-.1449.58099.21204,1.05603.79309,1.05603h1.94287c3.17944,0,4.20898-.07111,4.08093,1.43677l-5.29138,21.22229c-4.26514,17.10699-.45398,23.01801,12.55005,23.01801,12.30798,0,19.72778-6.328,23.88904-23.01801l7.26465-29.13702Zm163.54456,17.10693c-1.59521,6.39801-4.82568,11.26501-9.57031,13.83801l2.96997,20.16699h-13.90808l-1.85388-16.27203h-2.43408l-.00024.00104h-6.42407c-.58093,0-1.1709.461-1.31152,1.02496l-.01538.06201c-.14062.56403.21948,1.02502.80042,1.02502h6.42395l-3.53027,14.159h-12.93494l8.10974-32.52606c.32251-1.91339-.63879-1.82941-4.07275-1.82941h-1.94287c-.58105,0-.93799-.47504-.79297-1.05603.1449-.58099.73889-1.05597,1.31885-1.05597h1.94312l.00098-.00104c3.90454,0,4.30347.02423,5.21143-2.73907l2.96814-11.90442h13.35205c15.08997,0,18.25879,6.815,15.69275,17.10699Zm-17.14575-5.98102h-1.73804l-3.2251,12.935h.76501c4.38098,0,7.03967-1.18201,8.47888-6.95398.93616-3.755-.17773-5.98102-4.28076-5.98102Zm-35.90747,28.44299h-10.12109c-.58093,0-.94092-.461-.80054-1.02399l.01562-.06299c.14062-.56403.73059-1.02502,1.31152-1.02502h5.9751l1.81433-7.27698h10.64001l3.573-11.54303h-11.33496l1.76843-7.09296h14.25598l2.87817-11.54401h-27.88599l-4.12439,16.54236c-.87671,2.6264-1.29871,2.60675-5.13806,2.60675l-.00098.00104h-5.46301c-.57996,0-1.17395.47498-1.31897,1.05597s.21191,1.05603.79297,1.05603h5.46289c3.45703,0,4.37402-.08594,4.02283,1.86719l-.55762,2.23639c-.85217,2.53278-1.25647,2.51367-5.05017,2.51367l-.00098.00104h-1.94299c-.57996,0-1.17395.47498-1.31897,1.05597s.21191,1.05603.79297,1.05603h1.94299c3.47742,0,4.32983-.08478,3.94873,1.9046l-4.79089,19.21497h27.88599l2.8783-11.54401h-10.10608c-.00098,0-.0022.00098-.00415.00098Zm-157.75317-14.18689c-2.25391,9.04004-5.9873,16.48102-11.40833,21.21002l4.35217,9.03998-13.31152,7.65002-1.27368-3.38409c-1.3905-2.16144-5.29248-2.16827-8.90222-2.16827H9.34771c-.58093,0-.93701-.47504-.79297-1.05603.14502-.58099.73901-1.05597,1.32007-1.05597h24.47095v-.00104c3.60107,0,6.34631.04022,5.95911-2.14087l-.57581-1.52972c-.55688,0-1.20044.07001-1.75635.07001-6.65234,0-10.80127-2.19086-12.96411-6.11469h-.01147c-1.40796-2.78699-3.42798-2.815-7.37-2.815h-1.94299c-.58105,0-.93799-.47504-.79297-1.05603s.73901-1.05597,1.31897-1.05597h1.94299l.00098-.00104c3.94214,0,5.125.00104,5.01196-2.815h.0033c-.06995-2.30695.14563-4.8623.6134-7.63715.01672-2.16309-3.14575-2.07825-6.71875-2.07825H1.82354c-.58105,0-.93799-.47498-.79297-1.05597s.73901-1.05603,1.31897-1.05603h15.24036l.00098-.00098c3.80066,0,6.65588.01898,7.68701-2.52783,1.50061-5.49176,3.52063-10.24817,6.14355-14.0777.96167-2.13623-.43164-2.26025-4.07861-2.26025h-1.94299c-.58093,0-.93799-.47504-.79297-1.05603s.73792-1.05597,1.31897-1.05597h1.94299l.0011-.00104c3.29858,0,5.57715.48358,8.87329-1.41925,3.84937-3.03094,8.55469-4.69684,14.25024-4.69684,14.047,0,17.23608,10.64001,13.36987,26.14697Zm-23.00977,13.07404c2.73022,0,5.16772-2.17743,7.63184-10.5462.60852-2.51996-.14746-2.42371-3.90198-2.42371h-1.94299c-.58105,0-.93799-.47498-.79297-1.05597s.73901-1.05603,1.31897-1.05603h1.94299l.00098-.00098c3.84692,0,4.21167.0199,5.0885-2.62189,1.06409-6.30243-.32654-8.16425-3.03455-8.16425-3.82495,0-5.61377,2.43402-8.00635,12.02997-2.7915,11.19604-2.3374,13.83905,1.69556,13.83905Z" style="fill: #ed1c24; stroke-width: 0px;"/>
</svg>