<svg xmlns="http://www.w3.org/2000/svg" viewBox="0 0 145 20"><path fill="#0053A0" fill-rule="evenodd" d="M141.741 15.165c-1.04 3.46-1.44 4.501-3.16 4.501a3.31 3.31 0 0 1-1.201-.2l.26-1.701c.4.08.56.08.821.08.68 0 .94-.48 1.32-2l.14-.6-3.361-10.242h2.081l2.22 7.681 2.02-7.681h1.921l-3.061 10.162ZM132.68.802l1.921-.18v15.063h-1.921V.802Zm-5.899 15.003c-.58 0-1.3-.14-1.96-.42v4.161h-1.881V4.943l1.421-.161.12.721c.76-.48 1.64-.761 2.44-.761 2.521 0 3.801 1.861 3.801 5.162 0 3.56-1.42 5.901-3.941 5.901Zm-.22-9.322c-.54 0-1.24.26-1.74.7v6.441c.62.26 1.26.42 1.86.42 1.2 0 2.061-1.12 2.061-4.02 0-2.161-.481-3.541-2.181-3.541Zm-9.82 9.322c-.58 0-1.3-.14-1.96-.42v4.161H112.9V4.943l1.421-.161.12.721c.76-.48 1.64-.761 2.44-.761 2.521 0 3.801 1.861 3.801 5.162 0 3.56-1.42 5.901-3.941 5.901Zm-.22-9.322c-.54 0-1.24.26-1.74.7v6.441c.62.26 1.26.42 1.86.42 1.2 0 2.061-1.12 2.061-4.02 0-2.161-.481-3.541-2.181-3.541Zm-8.06 8.242c-.74.7-1.7 1.14-2.84 1.14-1.701 0-2.941-1.14-2.941-3.341 0-2.78 1.641-3.481 4.001-3.481.48 0 .96.02 1.5.06v-.2c0-2.08-.94-2.44-2.28-2.44-.56 0-1.16.02-2.201.26l-.22-1.62a10.156 10.156 0 0 1 2.721-.341c2.801 0 3.821 1.461 3.821 4.641v6.282h-1.421l-.14-.96Zm-.28-3.921c-.52-.04-.94-.04-1.3-.04-1.84.02-2.32.52-2.32 1.7 0 1.2.58 1.68 1.4 1.68.86 0 1.72-.46 2.22-1.14v-2.2Zm-11.839 2.18c0 1.941-1.361 3.001-3.621 3.001a7.89 7.89 0 0 1-3.421-.8l.56-1.701c.82.38 1.881.7 2.761.7 1.02 0 1.78-.28 1.78-1.16 0-.76-.36-1.22-2-1.98-1.481-.7-2.481-1.621-2.481-3.341 0-1.84 1.321-2.941 3.181-2.941.96 0 2.12.261 3.001.921l-.761 1.54c-.6-.46-1.34-.7-2.14-.7-.66 0-1.36.26-1.36 1.08 0 .82.54 1.26 1.92 1.98 1.84.941 2.581 1.741 2.581 3.401Zm-10.62-3.981c0-1.62-.341-2.44-1.641-2.44-.54 0-1.38.12-2.24.76v8.362H79.94V4.943l1.421-.161.16.901c.9-.64 1.92-.941 2.86-.941 2.561 0 3.241 1.681 3.241 4.161v6.782h-1.9V9.003Zm-12.301 6.842c-2.941 0-4.141-1.821-4.141-5.621 0-3.701 1.26-5.442 4.121-5.442 2.821 0 4.161 1.961 4.161 5.442 0 3.58-1.3 5.621-4.141 5.621Zm-.02-9.282c-1.54 0-2.14.76-2.14 3.621 0 3.08.6 3.88 2.16 3.88 1.24 0 2.161-.8 2.161-3.88 0-2.861-.961-3.621-2.181-3.621Zm-7.7-3.981c-.621 0-1.121-.3-1.121-1.06s.5-1.06 1.121-1.06c.62 0 1.12.3 1.12 1.06s-.5 1.06-1.12 1.06Zm-4.64 11.502c.26 0 .44 0 .94-.08l-.1 1.681c-.6.14-1.02.16-1.38.16-1.8 0-2.501-.98-2.501-3.581V6.703h-1.44v-1.7h1.44V2.602l1.941-.14v2.541h1.94v1.7h-1.94v5.621c0 1.36.26 1.76 1.1 1.76Zm-8.82-.1c.86 0 1.961-.38 2.541-.84l.66 1.581c-.76.62-2.201 1.12-3.401 1.12-2.861 0-4.201-2.141-4.201-5.481 0-2.801 1.2-5.622 4.421-5.622 1.04 0 2.101.321 2.781.881l-.7 1.6c-.661-.48-1.341-.62-2.021-.62-1.92 0-2.54 1.86-2.54 3.741 0 2.22.66 3.64 2.46 3.64Zm-7.82-11.402c-.621 0-1.121-.3-1.121-1.06s.5-1.06 1.121-1.06c.62 0 1.12.3 1.12 1.06s-.5 1.06-1.12 1.06Zm-3.72 3.981c-.62 0-1.46.1-2.06.84v8.282H36.68V4.963l1.581-.161.12 1.101c.64-.92 1.5-1.201 2.4-1.201.26 0 .5 0 .82.06l-.22 1.841c-.28-.04-.44-.04-.68-.04Zm-7.36 7.521c.26 0 .44 0 .94-.08l-.1 1.681c-.6.14-1.02.16-1.38.16-1.8 0-2.501-.98-2.501-3.581V6.703h-1.44v-1.7h1.44V2.602l1.941-.14v2.541h1.94v1.7h-1.94v5.621c0 1.36.26 1.76 1.1 1.76Zm-6.059-1.1c0 1.941-1.361 3.001-3.621 3.001a7.89 7.89 0 0 1-3.421-.8l.56-1.701c.82.38 1.881.7 2.761.7 1.02 0 1.78-.28 1.78-1.16 0-.76-.36-1.22-2-1.98-1.481-.7-2.481-1.621-2.481-3.341 0-1.84 1.321-2.941 3.181-2.941.96 0 2.12.261 3.001.921l-.761 1.54c-.6-.46-1.34-.7-2.14-.7-.66 0-1.36.26-1.36 1.08 0 .82.54 1.26 1.92 1.98 1.84.941 2.581 1.741 2.581 3.401Zm-11.921 1.1c.98 0 2.121-.36 2.881-.86l.58 1.481c-.84.68-2.261 1.14-3.581 1.14-3.02 0-4.481-2.161-4.481-5.541 0-3.201 1.14-5.542 4.201-5.542 2.681 0 4.181 2.041 3.601 6.142h-5.861c.12 2.18 1.04 3.18 2.66 3.18Zm1.541-4.841c.18-1.96-.621-2.76-1.921-2.76-1.6 0-2.14.94-2.26 2.76h4.181Zm-10.12 6.442L4.661 9.724c-.28.04-.78.04-.78.04h-1.32v5.921H.6V.982h3.061c3.541 0 4.701 1.7 4.701 4.261 0 1.96-.66 3.34-1.96 3.96l2.38 6.482h-2ZM3.841 2.682h-1.28v5.361h1.32c1.78 0 2.401-1.06 2.401-2.8 0-1.681-.701-2.561-2.441-2.561Zm41.52 13.003H43.46V5.003h1.901v10.682Zm21.28 0H64.74V5.003h1.901v10.682Z"/></svg>