<svg xmlns="http://www.w3.org/2000/svg" viewBox="0 0 102 25"><path fill="#ED1C24" fill-rule="evenodd" d="M97.606 24.421h-6.079l-3.818-11.007-1.942 11.007h-6.303L83.613.903h6.048l3.81 11.231L95.452.903h6.304l-4.15 23.518ZM73.876 6.215 73.3 9.479h5.215l-1.257 5.311h-4.895l-.763 4.32h6.56l-.937 5.311H64.392L68.541.903h12.831l-.937 5.312h-6.559ZM50.503 24.421 49.117.903h6.56l-.094 14.495L60.669.903h6.271l-9.941 23.518h-6.496ZM40.596 6.215l-.576 3.264h5.215l-1.257 5.311h-4.895l-.763 4.32h6.56l-.937 5.311H31.112L35.261.903h12.831l-.937 5.312h-6.559Zm-20.362-.128c-1.088 0-1.743.448-1.867 1.152-.181 1.024.695 1.504 2.586 3.295 2.363 2.208 4.166 3.776 3.5 7.552-.768 4.352-4.339 6.815-9.458 6.815-1.856 0-4.493-.288-6.599-1.408l2.313-5.311c.79.416 3.017 1.216 4.809 1.216 1.248 0 2.337-.192 2.49-1.056.175-.992-.512-1.632-3.089-3.712-2.185-1.76-3.478-4.224-2.982-7.039.7-3.968 3.925-7.008 8.532-7.008 2.4 0 4.888.768 6.112 2.176l-3.128 4.672c-.877-.832-1.971-1.344-3.219-1.344ZM.2 24.421 4.349.903h6.432l-4.15 23.518H.2Z"/></svg>