<?xml version="1.0" encoding="utf-8"?>
<!-- Generator: Adobe Illustrator 27.5.0, SVG Export Plug-In . SVG Version: 6.00 Build 0)  -->
<svg version="1.1" id="Layer_1" xmlns="http://www.w3.org/2000/svg" xmlns:xlink="http://www.w3.org/1999/xlink" x="0px" y="0px"
	 viewBox="0 0 122.1 32.9" style="enable-background:new 0 0 122.1 32.9;" xml:space="preserve">
<path d="M0.5,7.2V0h2.6c0.5,0,1,0.1,1.4,0.3c0.4,0.2,0.7,0.4,1,0.8s0.4,0.8,0.4,1.3c0,0.5-0.1,0.9-0.3,1.2S5,4.2,4.6,4.3
	C4.2,4.5,3.8,4.6,3.3,4.6H1.8v2.6H0.5L0.5,7.2z M1.8,3.6h1.5c0.4,0,0.8-0.1,1-0.4s0.4-0.6,0.4-1c0-0.4-0.1-0.7-0.4-1
	C4,1.1,3.6,1,3.2,1H1.8V3.6z M8.2,7.3c-0.3,0-0.6-0.1-0.9-0.2S6.8,6.9,6.7,6.6S6.5,6.1,6.5,5.8c0-0.6,0.2-1,0.6-1.3
	C7.5,4.2,8.1,4.1,9,4l0.8,0V3.7c0-0.3-0.1-0.5-0.2-0.6C9.4,2.9,9.2,2.8,8.8,2.8C8.6,2.8,8.3,2.9,8.1,3C7.9,3.1,7.8,3.3,7.7,3.6h-1
	c0-0.4,0.1-0.7,0.3-0.9c0.2-0.2,0.4-0.4,0.8-0.5C8.1,2,8.5,2,8.9,2C9.4,2,9.8,2,10.1,2.2c0.3,0.1,0.5,0.3,0.7,0.6
	C10.9,3,11,3.3,11,3.6v3.6h-1L9.9,6.3C9.7,6.7,9.4,7,9.2,7.1C8.9,7.3,8.5,7.3,8.2,7.3z M8.6,6.5c0.1,0,0.3,0,0.4-0.1
	c0.1-0.1,0.3-0.1,0.4-0.2C9.5,6.1,9.6,6,9.7,5.9c0.1-0.1,0.1-0.2,0.1-0.4V4.7l-0.6,0c-0.3,0-0.6,0-0.8,0.1C8.1,4.9,8,5,7.8,5.1
	C7.7,5.3,7.6,5.4,7.6,5.7c0,0.3,0.1,0.5,0.3,0.6C8.1,6.4,8.3,6.5,8.6,6.5z M12.8,8.9c-0.3,0-0.6-0.1-0.9-0.2V7.9l0.5,0
	c0.2,0,0.4,0,0.5,0c0.1,0,0.2-0.1,0.3-0.1c0.1-0.1,0.1-0.1,0.2-0.2s0.1-0.1,0.1-0.2l0.1-0.4l-2-5h1.2l1.4,3.7l1.4-3.7h1.2l-2.1,5.4
	c-0.2,0.4-0.3,0.7-0.5,0.9c-0.2,0.2-0.4,0.3-0.6,0.4C13.3,8.8,13,8.9,12.8,8.9z M19.4,7.2V1.1h-2.2V0h5.6v1.1h-2.2v6.1
	C20.6,7.2,19.4,7.2,19.4,7.2z M25.1,7.3c-0.5,0-0.9-0.1-1.3-0.3c-0.4-0.2-0.7-0.5-0.9-0.9c-0.2-0.4-0.3-0.9-0.3-1.4
	c0-0.5,0.1-1,0.3-1.4s0.5-0.7,0.8-1C24.2,2.1,24.6,2,25.1,2c0.5,0,0.9,0.1,1.3,0.3c0.4,0.2,0.6,0.5,0.8,0.9s0.3,0.9,0.3,1.5
	c0,0.5-0.1,1-0.3,1.4c-0.2,0.4-0.5,0.7-0.8,0.9C26.1,7.2,25.6,7.3,25.1,7.3z M25.1,6.4c0.3,0,0.5-0.1,0.7-0.2s0.3-0.4,0.4-0.6
	s0.1-0.6,0.1-0.9c0-0.3,0-0.6-0.1-0.9S26,3.3,25.8,3.1s-0.4-0.2-0.7-0.2c-0.3,0-0.5,0.1-0.7,0.2c-0.2,0.2-0.3,0.4-0.4,0.6
	c-0.1,0.3-0.1,0.6-0.1,0.9c0,0.3,0,0.6,0.1,0.9c0.1,0.3,0.2,0.5,0.4,0.7C24.6,6.3,24.8,6.4,25.1,6.4z M30.9,1.2V0h1.2v1.1H30.9z
	 M31,7.2V2.1h1.2v5.2C32.1,7.2,31,7.2,31,7.2z M35.5,7.3c-0.4,0-0.7-0.1-1-0.2c-0.3-0.1-0.6-0.3-0.8-0.5c-0.2-0.2-0.4-0.6-0.4-1h1.1
	C34.4,6,34.7,6.3,35,6.4c0.2,0.1,0.3,0.1,0.5,0.1c0.3,0,0.6-0.1,0.8-0.2c0.2-0.1,0.3-0.3,0.3-0.5c0-0.1-0.1-0.3-0.2-0.4
	c-0.1-0.1-0.3-0.2-0.5-0.2l-1-0.2c-0.4-0.1-0.8-0.3-1.1-0.5S33.4,4,33.4,3.6c0-0.3,0.1-0.6,0.2-0.8c0.2-0.2,0.4-0.4,0.7-0.6
	S35,2,35.5,2c0.6,0,1.1,0.1,1.5,0.4c0.4,0.3,0.6,0.7,0.6,1.1h-1c0-0.2-0.1-0.4-0.3-0.5s-0.4-0.2-0.7-0.2c-0.3,0-0.5,0.1-0.7,0.2
	c-0.2,0.1-0.3,0.3-0.3,0.5c0,0.2,0.1,0.3,0.2,0.4c0.1,0.1,0.3,0.2,0.6,0.2l0.9,0.2c0.3,0.1,0.5,0.2,0.7,0.3c0.2,0.1,0.3,0.2,0.4,0.4
	c0.1,0.1,0.2,0.3,0.2,0.4c0,0.1,0.1,0.3,0.1,0.4c0,0.3-0.1,0.6-0.3,0.9c-0.2,0.2-0.4,0.4-0.7,0.5C36.3,7.3,35.9,7.3,35.5,7.3z
	 M42.5,7.3c-0.3,0-0.6-0.1-0.9-0.2S41.1,6.9,41,6.6s-0.2-0.5-0.2-0.8c0-0.6,0.2-1,0.6-1.3c0.4-0.3,1.1-0.4,2-0.5l0.8,0V3.7
	c0-0.3-0.1-0.5-0.2-0.6c-0.2-0.2-0.4-0.2-0.8-0.2c-0.2,0-0.5,0.1-0.7,0.2c-0.2,0.1-0.3,0.3-0.4,0.6h-1c0-0.4,0.1-0.7,0.3-0.9
	c0.2-0.2,0.4-0.4,0.8-0.5C42.4,2,42.8,2,43.2,2c0.5,0,0.9,0.1,1.2,0.2c0.3,0.1,0.5,0.3,0.7,0.6c0.1,0.2,0.2,0.5,0.2,0.9v3.6h-1
	l-0.1-0.9C44,6.7,43.7,7,43.4,7.1C43.2,7.3,42.8,7.3,42.5,7.3L42.5,7.3z M42.9,6.5c0.2,0,0.3,0,0.4-0.1c0.1-0.1,0.3-0.1,0.4-0.2
	C43.8,6.1,43.9,6,44,5.9c0.1-0.1,0.1-0.2,0.1-0.4V4.7l-0.6,0c-0.3,0-0.6,0-0.8,0.1c-0.2,0-0.4,0.2-0.5,0.3c-0.1,0.1-0.2,0.3-0.2,0.6
	c0,0.3,0.1,0.5,0.3,0.6C42.4,6.4,42.6,6.5,42.9,6.5z M46.6,7.2V2.1h1.2v0.7c0.2-0.3,0.5-0.6,0.8-0.7C48.8,2,49,2,49.3,2
	c0.3,0,0.6,0.1,0.9,0.2c0.3,0.1,0.5,0.3,0.7,0.6c0.2,0.3,0.3,0.6,0.3,1v3.4h-1.2V4c0-0.3-0.1-0.6-0.3-0.8S49.2,3,48.9,3
	c-0.2,0-0.4,0-0.5,0.1c-0.2,0.1-0.3,0.2-0.4,0.3c-0.1,0.1-0.2,0.3-0.2,0.5v3.4H46.6z M54.8,1.2V0H56v1.1H54.8z M54.8,7.2V2.1h1.2
	v5.2L54.8,7.2L54.8,7.2z M57.4,7.2V2.1h1.2v0.7c0.2-0.3,0.5-0.6,0.8-0.7C59.6,2,59.9,2,60.1,2c0.3,0,0.6,0.1,0.9,0.2
	c0.3,0.1,0.5,0.3,0.7,0.6c0.2,0.3,0.3,0.6,0.3,1v3.4h-1.2V4c0-0.3-0.1-0.6-0.3-0.8S60,3,59.7,3c-0.2,0-0.4,0-0.5,0.1
	c-0.2,0.1-0.3,0.2-0.4,0.3c-0.1,0.1-0.2,0.3-0.2,0.5v3.4C58.6,7.2,57.4,7.2,57.4,7.2z M63.2,1.2V0h1.2v1.1H63.2z M63.3,7.2V2.1h1.2
	v5.2C64.4,7.2,63.3,7.2,63.3,7.2z M67.9,7.3c-0.4,0-0.7-0.1-1-0.2s-0.4-0.3-0.5-0.5s-0.1-0.4-0.1-0.7v-3h-0.8V2.1h0.9l0.3-1.5h0.9
	v1.5h1.2v0.9h-1.2l0,3c0,0.2,0,0.3,0.1,0.3s0.1,0.1,0.2,0.1c0.1,0,0.2,0,0.3,0h0.6v0.8c-0.1,0-0.2,0.1-0.3,0.1
	C68.3,7.3,68.1,7.3,67.9,7.3z M69.9,1.2V0h1.2v1.1H69.9z M69.9,7.2V2.1H71v5.2C71,7.2,69.9,7.2,69.9,7.2z M73.9,7.3
	c-0.3,0-0.6-0.1-0.9-0.2s-0.5-0.3-0.6-0.5s-0.2-0.5-0.2-0.8c0-0.6,0.2-1,0.6-1.3c0.4-0.3,1.1-0.4,2-0.5l0.8,0V3.7
	c0-0.3-0.1-0.5-0.2-0.6c-0.2-0.2-0.4-0.2-0.8-0.2c-0.2,0-0.5,0.1-0.7,0.2c-0.2,0.1-0.3,0.3-0.4,0.6h-1c0-0.4,0.1-0.7,0.3-0.9
	c0.2-0.2,0.4-0.4,0.8-0.5C73.9,2,74.3,2,74.6,2c0.5,0,0.9,0.1,1.2,0.2c0.3,0.1,0.5,0.3,0.7,0.6c0.1,0.2,0.2,0.5,0.2,0.9v3.6h-1
	l-0.1-0.9c-0.2,0.4-0.4,0.7-0.7,0.8C74.6,7.3,74.3,7.3,73.9,7.3z M74.3,6.5c0.2,0,0.3,0,0.4-0.1c0.1-0.1,0.3-0.1,0.4-0.2
	c0.1-0.1,0.2-0.2,0.3-0.3c0.1-0.1,0.1-0.2,0.1-0.4V4.7l-0.6,0c-0.3,0-0.6,0-0.8,0.1c-0.2,0-0.4,0.2-0.5,0.3
	c-0.1,0.1-0.2,0.3-0.2,0.6c0,0.3,0.1,0.5,0.3,0.6C73.8,6.4,74.1,6.5,74.3,6.5z M79.9,7.3c-0.4,0-0.7-0.1-1-0.2s-0.4-0.3-0.5-0.5
	s-0.1-0.4-0.1-0.7v-3h-0.8V2.1h0.9l0.3-1.5h0.9v1.5h1.2v0.9h-1.2l0,3c0,0.2,0,0.3,0.1,0.3s0.1,0.1,0.2,0.1c0.1,0,0.2,0,0.3,0h0.6
	v0.8c-0.1,0-0.2,0.1-0.3,0.1C80.3,7.3,80.1,7.3,79.9,7.3z M81.9,1.2V0h1.2v1.1H81.9z M81.9,7.2V2.1h1.2v5.2L81.9,7.2L81.9,7.2z
	 M85.9,7.2L84,2.1h1.1l1.2,3.6h0.1l1.2-3.6h1.1l-1.9,5.2H85.9z M91.8,7.3c-0.5,0-0.9-0.1-1.3-0.3c-0.4-0.2-0.7-0.5-0.9-0.9
	c-0.2-0.4-0.3-0.9-0.3-1.4c0-0.5,0.1-1,0.3-1.4c0.2-0.4,0.5-0.7,0.8-1C90.7,2.1,91.2,2,91.7,2c0.5,0,0.9,0.1,1.3,0.3
	c0.3,0.2,0.6,0.5,0.8,0.9C93.9,3.6,94,4,94,4.6v0.4h-3.6c0,0.3,0,0.6,0.1,0.8s0.2,0.4,0.4,0.5c0.2,0.1,0.4,0.2,0.7,0.2
	c0.3,0,0.5-0.1,0.7-0.2c0.2-0.1,0.4-0.3,0.4-0.6H94c-0.1,0.4-0.2,0.7-0.4,0.9c-0.2,0.2-0.5,0.4-0.8,0.6C92.4,7.3,92.1,7.3,91.8,7.3z
	 M90.4,4.2h2.4c0-0.2,0-0.5-0.1-0.7c-0.1-0.2-0.2-0.4-0.4-0.5c-0.2-0.1-0.4-0.2-0.7-0.2c-0.3,0-0.5,0.1-0.7,0.2
	c-0.2,0.1-0.3,0.3-0.4,0.5C90.5,3.7,90.4,4,90.4,4.2z M99.6,7.3c-0.5,0-0.9-0.1-1.3-0.3c-0.4-0.2-0.7-0.5-0.9-0.9
	c-0.2-0.4-0.3-0.9-0.3-1.4c0-0.5,0.1-1,0.3-1.4s0.5-0.7,0.8-1C98.6,2.1,99,2,99.6,2c0.5,0,0.9,0.1,1.3,0.3c0.4,0.2,0.6,0.5,0.8,0.9
	s0.3,0.9,0.3,1.5c0,0.5-0.1,1-0.3,1.4c-0.2,0.4-0.5,0.7-0.8,0.9C100.5,7.2,100.1,7.3,99.6,7.3L99.6,7.3z M99.6,6.4
	c0.3,0,0.5-0.1,0.7-0.2s0.3-0.4,0.4-0.6s0.1-0.6,0.1-0.9c0-0.3,0-0.6-0.1-0.9s-0.2-0.5-0.4-0.6s-0.4-0.2-0.7-0.2
	c-0.3,0-0.5,0.1-0.7,0.2c-0.2,0.2-0.3,0.4-0.4,0.6c-0.1,0.3-0.1,0.6-0.1,0.9c0,0.3,0,0.6,0.1,0.9c0.1,0.3,0.2,0.5,0.4,0.7
	C99,6.3,99.3,6.4,99.6,6.4z M103.6,7.2V2.9h-1V2.1h1V1.3c0-0.4,0.1-0.7,0.3-1c0.2-0.2,0.6-0.3,1-0.3h1.1l0,0.8h-0.7
	c-0.2,0-0.3,0.1-0.4,0.2s-0.1,0.3-0.1,0.5v0.6h1.2v0.9h-1.2v4.3C104.8,7.2,103.6,7.2,103.6,7.2z M0,19.2L2.6,12h1.3l2.6,7.2H5.3
	l-0.6-1.8H1.9l-0.6,1.8H0z M2.2,16.3h2.2l-1.1-3.2L2.2,16.3z M9.3,19.3c-0.3,0-0.5,0-0.7-0.1S8.2,19,8,18.9
	c-0.2-0.1-0.3-0.3-0.4-0.5c-0.1-0.2-0.2-0.5-0.2-0.7v-3.5h1.2v3.4c0,0.3,0.1,0.5,0.3,0.7c0.2,0.2,0.4,0.3,0.8,0.3
	c0.3,0,0.6-0.1,0.8-0.3c0.2-0.2,0.3-0.4,0.3-0.7v-3.4h1.2v5.2H11l-0.1-1c-0.1,0.3-0.2,0.5-0.3,0.7c-0.2,0.2-0.3,0.3-0.6,0.3
	C9.8,19.3,9.6,19.3,9.3,19.3L9.3,19.3z M15.3,19.3c-0.4,0-0.7-0.1-1-0.2s-0.6-0.3-0.8-0.5c-0.2-0.2-0.4-0.6-0.4-1h1.1
	c0,0.2,0.1,0.3,0.2,0.5c0.1,0.1,0.3,0.2,0.4,0.3c0.2,0.1,0.3,0.1,0.5,0.1c0.3,0,0.6-0.1,0.7-0.2s0.3-0.3,0.3-0.5
	c0-0.1-0.1-0.3-0.2-0.4c-0.1-0.1-0.3-0.2-0.5-0.2l-1-0.2c-0.4-0.1-0.8-0.3-1.1-0.5c-0.3-0.2-0.4-0.5-0.4-0.9c0-0.3,0.1-0.6,0.2-0.8
	c0.2-0.2,0.4-0.4,0.7-0.6c0.3-0.1,0.7-0.2,1.1-0.2c0.6,0,1.1,0.1,1.5,0.4c0.4,0.3,0.6,0.6,0.6,1.1h-1c0-0.2-0.1-0.4-0.3-0.5
	s-0.4-0.2-0.7-0.2c-0.3,0-0.5,0.1-0.7,0.2c-0.2,0.1-0.3,0.3-0.3,0.5c0,0.2,0.1,0.3,0.2,0.4c0.1,0.1,0.3,0.2,0.6,0.2l0.9,0.2
	c0.3,0.1,0.5,0.2,0.7,0.3c0.2,0.1,0.3,0.2,0.4,0.4c0.1,0.1,0.2,0.3,0.2,0.4c0,0.1,0.1,0.3,0.1,0.4c0,0.3-0.1,0.6-0.3,0.9
	c-0.2,0.2-0.4,0.4-0.7,0.5S15.7,19.3,15.3,19.3L15.3,19.3z M20.5,19.3c-0.4,0-0.7-0.1-1-0.2s-0.4-0.3-0.5-0.5S19,18.2,19,17.9v-3
	h-0.8v-0.9H19l0.3-1.5h0.9v1.5h1.2v0.9h-1.2l0,3c0,0.2,0,0.3,0.1,0.3c0,0.1,0.1,0.1,0.2,0.1s0.2,0,0.3,0h0.6v0.8
	c-0.1,0-0.2,0-0.3,0.1S20.7,19.3,20.5,19.3L20.5,19.3z M22.5,19.2v-5.2h1.2v1.1c0.1-0.3,0.2-0.5,0.4-0.7c0.3-0.4,0.8-0.6,1.2-0.6
	c0.1,0,0.1,0,0.2,0c0,0,0.1,0,0.1,0v1.2c0,0-0.1,0-0.1,0c-0.1,0-0.1,0-0.2,0c-0.2,0-0.4,0-0.7,0c-0.2,0-0.4,0.1-0.5,0.2
	s-0.2,0.2-0.3,0.4s-0.1,0.3-0.1,0.5v3H22.5z M27.8,19.3c-0.3,0-0.6-0.1-0.9-0.2s-0.5-0.3-0.6-0.5s-0.2-0.5-0.2-0.8
	c0-0.6,0.2-1,0.6-1.3c0.4-0.3,1.1-0.4,2-0.5l0.8,0v-0.4c0-0.3-0.1-0.5-0.2-0.6c-0.2-0.2-0.4-0.2-0.8-0.2c-0.2,0-0.5,0.1-0.7,0.2
	c-0.2,0.1-0.3,0.3-0.4,0.6h-1c0-0.4,0.1-0.6,0.3-0.9c0.2-0.2,0.4-0.4,0.8-0.5c0.4-0.1,0.7-0.2,1.1-0.2c0.5,0,0.9,0.1,1.2,0.2
	c0.3,0.1,0.5,0.3,0.7,0.6s0.2,0.5,0.2,0.9v3.6h-1l-0.1-0.9c-0.2,0.4-0.4,0.7-0.7,0.8C28.5,19.3,28.2,19.3,27.8,19.3L27.8,19.3z
	 M28.2,18.5c0.1,0,0.3,0,0.4-0.1c0.1-0.1,0.3-0.1,0.4-0.2c0.1-0.1,0.2-0.2,0.3-0.3c0.1-0.1,0.1-0.2,0.1-0.4v-0.8l-0.6,0
	c-0.3,0-0.6,0-0.8,0.1c-0.2,0-0.4,0.2-0.5,0.3c-0.1,0.1-0.2,0.3-0.2,0.6c0,0.3,0.1,0.5,0.3,0.6C27.7,18.4,28,18.5,28.2,18.5
	L28.2,18.5z M33.4,19.3c-0.3,0-0.6,0-0.8-0.1s-0.3-0.2-0.5-0.3c-0.1-0.1-0.2-0.3-0.2-0.5c0-0.2,0-0.4,0-0.5v-6h1.2v5.9
	c0,0.2,0,0.4,0.1,0.5s0.2,0.2,0.4,0.2l0.3,0v0.8c-0.1,0-0.2,0-0.3,0.1C33.6,19.3,33.5,19.3,33.4,19.3L33.4,19.3z M35.1,13.2V12h1.2
	v1.1H35.1z M35.1,19.2v-5.2h1.2v5.2H35.1z M39.1,19.3c-0.3,0-0.6-0.1-0.9-0.2s-0.5-0.3-0.6-0.5s-0.2-0.5-0.2-0.8
	c0-0.6,0.2-1,0.6-1.3c0.4-0.3,1.1-0.4,2-0.5l0.8,0v-0.4c0-0.3-0.1-0.5-0.2-0.6c-0.2-0.2-0.4-0.2-0.8-0.2c-0.2,0-0.5,0.1-0.7,0.2
	c-0.2,0.1-0.3,0.3-0.4,0.6h-1c0-0.4,0.1-0.6,0.3-0.9c0.2-0.2,0.4-0.4,0.8-0.5c0.4-0.1,0.7-0.2,1.1-0.2c0.5,0,0.9,0.1,1.2,0.2
	s0.5,0.3,0.7,0.6c0.1,0.2,0.2,0.5,0.2,0.9v3.6h-1l-0.1-0.9c-0.2,0.4-0.4,0.7-0.7,0.8C39.8,19.3,39.5,19.3,39.1,19.3z M39.5,18.5
	c0.2,0,0.3,0,0.4-0.1s0.3-0.1,0.4-0.2c0.1-0.1,0.2-0.2,0.3-0.3c0.1-0.1,0.1-0.2,0.1-0.4v-0.8l-0.6,0c-0.3,0-0.6,0-0.8,0.1
	c-0.2,0-0.4,0.2-0.5,0.3c-0.1,0.1-0.2,0.3-0.2,0.6c0,0.3,0.1,0.5,0.3,0.6C39,18.4,39.3,18.5,39.5,18.5L39.5,18.5z M43.2,19.2v-5.2
	h1.2v0.7c0.2-0.3,0.5-0.6,0.8-0.7C45.5,14,45.7,14,46,14c0.3,0,0.6,0.1,0.9,0.2c0.3,0.1,0.5,0.3,0.7,0.6c0.2,0.3,0.3,0.6,0.3,1v3.4
	h-1.2V16c0-0.3-0.1-0.6-0.3-0.8S45.9,15,45.6,15c-0.2,0-0.4,0-0.5,0.1c-0.2,0.1-0.3,0.2-0.4,0.3c-0.1,0.1-0.2,0.3-0.2,0.5v3.4H43.2z
	 M51.6,19.2V12h2.6c0.5,0,1,0.1,1.4,0.3c0.4,0.2,0.7,0.4,1,0.8c0.2,0.3,0.4,0.8,0.4,1.3c0,0.5-0.1,0.9-0.3,1.2s-0.5,0.6-0.9,0.8
	s-0.8,0.3-1.3,0.3h-1.5v2.6L51.6,19.2L51.6,19.2z M52.8,15.6h1.5c0.4,0,0.8-0.1,1-0.4s0.4-0.6,0.4-1c0-0.4-0.1-0.7-0.4-1
	S54.7,13,54.3,13h-1.4L52.8,15.6L52.8,15.6z M59.3,19.3c-0.3,0-0.6-0.1-0.9-0.2s-0.5-0.3-0.6-0.5s-0.2-0.5-0.2-0.8
	c0-0.6,0.2-1,0.6-1.3c0.4-0.3,1.1-0.4,2-0.5l0.8,0v-0.4c0-0.3-0.1-0.5-0.2-0.6c-0.2-0.2-0.4-0.2-0.8-0.2c-0.2,0-0.5,0.1-0.7,0.2
	c-0.2,0.1-0.3,0.3-0.4,0.6h-1c0-0.4,0.1-0.6,0.3-0.9c0.2-0.2,0.4-0.4,0.8-0.5C59.2,14,59.6,14,60,14c0.5,0,0.9,0.1,1.2,0.2
	c0.3,0.1,0.5,0.3,0.7,0.6c0.1,0.2,0.2,0.5,0.2,0.9v3.6h-1l-0.1-0.9c-0.2,0.4-0.4,0.7-0.7,0.8C60,19.3,59.6,19.3,59.3,19.3z
	 M59.7,18.5c0.2,0,0.3,0,0.4-0.1s0.3-0.1,0.4-0.2c0.1-0.1,0.2-0.2,0.3-0.3c0.1-0.1,0.1-0.2,0.1-0.4v-0.8l-0.6,0
	c-0.3,0-0.6,0-0.8,0.1c-0.2,0-0.4,0.2-0.5,0.3c-0.1,0.1-0.2,0.3-0.2,0.6c0,0.3,0.1,0.5,0.3,0.6C59.2,18.4,59.4,18.5,59.7,18.5
	L59.7,18.5z M63.9,20.9c-0.3,0-0.6,0-0.9-0.2v-0.8l0.5,0c0.2,0,0.4,0,0.5,0c0.1,0,0.2-0.1,0.3-0.1c0.1-0.1,0.1-0.1,0.2-0.2
	c0-0.1,0.1-0.1,0.1-0.2l0.1-0.4l-2-5h1.2l1.4,3.7l1.4-3.7h1.2l-2.1,5.4c-0.2,0.4-0.3,0.7-0.5,0.9c-0.2,0.2-0.4,0.4-0.6,0.4
	C64.4,20.8,64.1,20.9,63.9,20.9L63.9,20.9z M68.7,19.2v-5.2h1.2v0.7c0.2-0.2,0.4-0.4,0.6-0.6c0.3-0.2,0.6-0.2,1-0.2
	c0.4,0,0.8,0.1,1.1,0.4c0.2,0.1,0.3,0.3,0.4,0.5c0.2-0.2,0.4-0.4,0.7-0.6c0.3-0.2,0.6-0.2,0.9-0.2c0.2,0,0.4,0,0.6,0.1
	s0.4,0.2,0.5,0.3c0.2,0.1,0.3,0.3,0.4,0.6s0.2,0.5,0.2,0.9v3.4H75V16c0-0.3,0-0.5-0.1-0.6c-0.1-0.1-0.2-0.2-0.3-0.3
	C74.4,15,74.2,15,74.1,15c-0.2,0-0.3,0-0.4,0.1c-0.2,0.1-0.3,0.2-0.4,0.3c-0.1,0.1-0.2,0.3-0.2,0.5v3.4h-1.2v-3.4
	c0-0.2,0-0.3-0.1-0.4c-0.1-0.1-0.2-0.2-0.4-0.3C71.2,15,71.1,15,70.9,15c-0.2,0-0.3,0-0.5,0.1c-0.2,0.1-0.3,0.2-0.4,0.3
	c-0.1,0.1-0.2,0.3-0.2,0.5v3.4L68.7,19.2L68.7,19.2z M79.8,19.3c-0.5,0-0.9-0.1-1.3-0.3c-0.4-0.2-0.7-0.5-0.9-0.9s-0.3-0.9-0.3-1.4
	c0-0.5,0.1-1,0.3-1.4c0.2-0.4,0.5-0.7,0.8-1c0.4-0.2,0.8-0.4,1.3-0.4c0.5,0,0.9,0.1,1.3,0.3c0.3,0.2,0.6,0.5,0.8,0.9
	c0.2,0.4,0.3,0.8,0.3,1.4v0.4h-3.6c0,0.3,0,0.6,0.1,0.8s0.2,0.4,0.4,0.5s0.4,0.2,0.7,0.2c0.3,0,0.5-0.1,0.7-0.2s0.4-0.3,0.4-0.6h1.1
	c-0.1,0.4-0.2,0.7-0.4,0.9c-0.2,0.2-0.5,0.4-0.8,0.6S80.1,19.3,79.8,19.3z M78.5,16.2h2.4c0-0.2,0-0.5-0.1-0.7
	c-0.1-0.2-0.2-0.4-0.4-0.5c-0.2-0.1-0.4-0.2-0.7-0.2c-0.3,0-0.5,0.1-0.7,0.2c-0.2,0.1-0.3,0.3-0.4,0.5C78.5,15.7,78.5,16,78.5,16.2z
	 M83.2,19.2v-5.2h1.2v0.7c0.2-0.3,0.5-0.6,0.8-0.7C85.5,14,85.7,14,86,14c0.3,0,0.6,0.1,0.9,0.2c0.3,0.1,0.5,0.3,0.7,0.6
	c0.2,0.3,0.3,0.6,0.3,1v3.4h-1.2V16c0-0.3-0.1-0.6-0.3-0.8S85.9,15,85.6,15c-0.2,0-0.4,0-0.6,0.1c-0.2,0.1-0.3,0.2-0.4,0.3
	c-0.1,0.1-0.2,0.3-0.2,0.5v3.4C84.4,19.2,83.2,19.2,83.2,19.2z M91,19.3c-0.4,0-0.7-0.1-1-0.2s-0.4-0.3-0.5-0.5s-0.1-0.4-0.1-0.7v-3
	h-0.8v-0.9h0.9l0.3-1.5h0.9v1.5h1.2v0.9h-1.2l0,3c0,0.2,0,0.3,0.1,0.3c0,0.1,0.1,0.1,0.2,0.1s0.2,0,0.3,0h0.6v0.8
	c-0.1,0-0.2,0-0.3,0.1S91.2,19.3,91,19.3L91,19.3z M94.9,19.3c-0.4,0-0.7-0.1-1-0.2s-0.6-0.3-0.8-0.5c-0.2-0.2-0.4-0.6-0.4-1h1.1
	c0,0.2,0.1,0.3,0.2,0.5c0.1,0.1,0.3,0.2,0.4,0.3c0.2,0.1,0.3,0.1,0.5,0.1c0.3,0,0.6-0.1,0.8-0.2s0.3-0.3,0.3-0.5
	c0-0.1-0.1-0.3-0.2-0.4c-0.1-0.1-0.3-0.2-0.5-0.2l-1-0.2c-0.4-0.1-0.8-0.3-1.1-0.5c-0.3-0.2-0.4-0.5-0.4-0.9c0-0.3,0.1-0.6,0.2-0.8
	c0.2-0.2,0.4-0.4,0.7-0.6s0.7-0.2,1.1-0.2c0.6,0,1.1,0.1,1.5,0.4c0.4,0.3,0.6,0.6,0.6,1.1h-1c0-0.2-0.1-0.4-0.3-0.5
	s-0.4-0.2-0.7-0.2c-0.3,0-0.5,0.1-0.7,0.2c-0.2,0.1-0.3,0.3-0.3,0.5c0,0.2,0.1,0.3,0.2,0.4s0.3,0.2,0.6,0.2l0.9,0.2
	c0.3,0.1,0.5,0.2,0.7,0.3c0.2,0.1,0.3,0.2,0.4,0.4c0.1,0.1,0.2,0.3,0.2,0.4c0,0.1,0.1,0.3,0.1,0.4c0,0.3-0.1,0.6-0.3,0.9
	c-0.2,0.2-0.4,0.4-0.7,0.5S95.3,19.3,94.9,19.3L94.9,19.3z M100.5,19.2V12h2.6c0.5,0,1,0.1,1.4,0.3c0.4,0.2,0.7,0.4,1,0.8
	c0.2,0.3,0.4,0.8,0.4,1.3c0,0.5-0.1,0.9-0.3,1.2s-0.5,0.6-0.9,0.8c-0.4,0.2-0.8,0.3-1.3,0.3h-1.5v2.6L100.5,19.2L100.5,19.2z
	 M101.8,15.6h1.5c0.4,0,0.8-0.1,1-0.4s0.4-0.6,0.4-1c0-0.4-0.1-0.7-0.4-1s-0.6-0.3-1.1-0.3h-1.4C101.8,13,101.8,15.6,101.8,15.6z
	 M108.3,19.3c-0.3,0-0.6,0-0.8-0.1s-0.3-0.2-0.4-0.3c-0.1-0.1-0.2-0.3-0.2-0.5c0-0.2,0-0.4,0-0.5v-6h1.2v5.9c0,0.2,0,0.4,0.1,0.5
	s0.2,0.2,0.4,0.2l0.3,0v0.8c-0.1,0-0.2,0-0.3,0.1S108.4,19.3,108.3,19.3L108.3,19.3z M111.8,19.3c-0.3,0-0.5,0-0.7-0.1
	s-0.4-0.2-0.6-0.3c-0.2-0.1-0.3-0.3-0.4-0.5c-0.1-0.2-0.2-0.5-0.2-0.7v-3.5h1.2v3.4c0,0.3,0.1,0.5,0.3,0.7c0.2,0.2,0.4,0.3,0.8,0.3
	c0.3,0,0.6-0.1,0.8-0.3c0.2-0.2,0.3-0.4,0.3-0.7v-3.4h1.2v5.2h-0.9l-0.1-1c-0.1,0.3-0.2,0.5-0.3,0.7c-0.2,0.2-0.3,0.3-0.6,0.3
	C112.2,19.3,112,19.3,111.8,19.3L111.8,19.3z M117.7,19.3c-0.4,0-0.7-0.1-1-0.2s-0.6-0.3-0.8-0.5c-0.2-0.2-0.4-0.6-0.4-1h1.1
	c0,0.2,0.1,0.3,0.2,0.5c0.1,0.1,0.3,0.2,0.4,0.3c0.2,0.1,0.3,0.1,0.5,0.1c0.3,0,0.6-0.1,0.8-0.2s0.3-0.3,0.3-0.5
	c0-0.1-0.1-0.3-0.2-0.4c-0.1-0.1-0.3-0.2-0.5-0.2l-1-0.2c-0.4-0.1-0.8-0.3-1.1-0.5c-0.3-0.2-0.4-0.5-0.4-0.9c0-0.3,0.1-0.6,0.2-0.8
	c0.2-0.2,0.4-0.4,0.7-0.6s0.7-0.2,1.1-0.2c0.6,0,1.1,0.1,1.5,0.4s0.6,0.6,0.6,1.1h-1c0-0.2-0.1-0.4-0.3-0.5s-0.4-0.2-0.7-0.2
	c-0.3,0-0.5,0.1-0.7,0.2c-0.2,0.1-0.3,0.3-0.3,0.5c0,0.2,0.1,0.3,0.2,0.4s0.3,0.2,0.6,0.2l0.9,0.2c0.3,0.1,0.5,0.2,0.7,0.3
	c0.2,0.1,0.3,0.2,0.4,0.4c0.1,0.1,0.2,0.3,0.2,0.4c0,0.1,0.1,0.3,0.1,0.4c0,0.3-0.1,0.6-0.3,0.9s-0.4,0.4-0.7,0.5
	S118.2,19.3,117.7,19.3L117.7,19.3z M120.8,19.2v-1.4h1.4v1.4L120.8,19.2L120.8,19.2z M0.5,31.2V24h2.9c0.6,0,1,0.1,1.4,0.3
	s0.6,0.4,0.8,0.7c0.2,0.3,0.3,0.7,0.3,1.1c0,0.4-0.1,0.7-0.2,1s-0.3,0.5-0.5,0.6C5,27.9,4.8,28,4.6,28.1l1.4,3.1H4.7l-1.2-2.9H1.8
	v2.9L0.5,31.2L0.5,31.2z M1.8,27.3h1.4c0.5,0,0.8-0.1,1.1-0.3c0.3-0.2,0.4-0.5,0.4-0.9c0-0.4-0.1-0.7-0.4-0.9
	c-0.2-0.2-0.6-0.3-1-0.3H1.8C1.8,25,1.8,27.3,1.8,27.3z M9.2,31.3c-0.5,0-0.9-0.1-1.3-0.3c-0.4-0.2-0.7-0.5-0.9-0.9
	c-0.2-0.4-0.3-0.9-0.3-1.4c0-0.5,0.1-1,0.3-1.4c0.2-0.4,0.5-0.7,0.8-1C8.3,26.1,8.7,26,9.2,26c0.5,0,0.9,0.1,1.3,0.3
	s0.6,0.5,0.8,0.9s0.3,0.9,0.3,1.5c0,0.5-0.1,1-0.3,1.4c-0.2,0.4-0.5,0.7-0.8,0.9C10.2,31.2,9.7,31.3,9.2,31.3z M9.2,30.4
	c0.3,0,0.5-0.1,0.7-0.2s0.3-0.4,0.4-0.6s0.1-0.6,0.1-0.9c0-0.3,0-0.6-0.1-0.9c-0.1-0.2-0.2-0.5-0.4-0.6c-0.2-0.2-0.4-0.2-0.7-0.2
	c-0.3,0-0.5,0.1-0.7,0.2c-0.2,0.2-0.3,0.4-0.4,0.6C8,28,8,28.3,8,28.6c0,0.3,0,0.6,0.1,0.9s0.2,0.5,0.4,0.6S8.9,30.4,9.2,30.4z
	 M14.2,31.3c-0.3,0-0.6,0-0.8-0.1S13.1,31,13,30.8c-0.1-0.1-0.2-0.3-0.2-0.5c0-0.2,0-0.4,0-0.5v-6h1.2v5.9c0,0.2,0,0.4,0.1,0.5
	c0.1,0.1,0.2,0.2,0.4,0.2l0.3,0v0.8c-0.1,0-0.2,0-0.3,0.1C14.4,31.3,14.3,31.3,14.2,31.3L14.2,31.3z M17.3,31.3
	c-0.3,0-0.6,0-0.8-0.1S16.1,31,16,30.8c-0.1-0.1-0.2-0.3-0.2-0.5c0-0.2,0-0.4,0-0.5v-6H17v5.9c0,0.2,0,0.4,0.1,0.5
	c0.1,0.1,0.2,0.2,0.4,0.2l0.3,0v0.8c-0.1,0-0.2,0-0.3,0.1C17.4,31.3,17.4,31.3,17.3,31.3L17.3,31.3z M20.8,31.3
	c-0.5,0-0.9-0.1-1.3-0.3c-0.4-0.2-0.7-0.5-0.9-0.9c-0.2-0.4-0.3-0.9-0.3-1.4c0-0.5,0.1-1,0.3-1.4c0.2-0.4,0.5-0.7,0.8-1
	s0.8-0.3,1.3-0.3c0.5,0,0.9,0.1,1.3,0.3s0.6,0.5,0.8,0.9s0.3,0.9,0.3,1.5c0,0.5-0.1,1-0.3,1.4c-0.2,0.4-0.5,0.7-0.8,0.9
	C21.8,31.2,21.4,31.3,20.8,31.3z M20.8,30.4c0.3,0,0.5-0.1,0.7-0.2s0.3-0.4,0.4-0.6s0.1-0.6,0.1-0.9c0-0.3,0-0.6-0.1-0.9
	c-0.1-0.2-0.2-0.5-0.4-0.6c-0.2-0.2-0.4-0.2-0.7-0.2c-0.3,0-0.5,0.1-0.7,0.2c-0.2,0.2-0.3,0.4-0.4,0.6c-0.1,0.3-0.1,0.6-0.1,0.9
	c0,0.3,0,0.6,0.1,0.9s0.2,0.5,0.4,0.6S20.5,30.4,20.8,30.4z M26.2,31.3c-0.3,0-0.5,0-0.7-0.1s-0.4-0.2-0.6-0.3
	c-0.2-0.1-0.3-0.3-0.4-0.5c-0.1-0.2-0.2-0.5-0.2-0.7v-3.5h1.2v3.4c0,0.3,0.1,0.5,0.3,0.7c0.2,0.2,0.4,0.3,0.8,0.3
	c0.3,0,0.6-0.1,0.8-0.3c0.2-0.2,0.3-0.4,0.3-0.7v-3.4h1.2v5.2h-0.9l-0.1-1c-0.1,0.3-0.2,0.5-0.3,0.7c-0.2,0.2-0.3,0.3-0.6,0.3
	C26.7,31.3,26.5,31.3,26.2,31.3L26.2,31.3z M32.3,31.3c-0.4,0-0.7-0.1-1-0.2s-0.4-0.3-0.5-0.5s-0.1-0.4-0.1-0.7v-3h-0.8v-0.9h0.9
	l0.3-1.5H32v1.5h1.2v0.9H32l0,3c0,0.2,0,0.3,0.1,0.3c0,0.1,0.1,0.1,0.2,0.1s0.2,0,0.3,0h0.6v0.8c-0.1,0-0.2,0.1-0.3,0.1
	S32.5,31.3,32.3,31.3z M38.7,31.3c-0.4,0-0.7-0.1-1-0.2s-0.4-0.3-0.5-0.5s-0.1-0.4-0.1-0.7v-3h-0.8v-0.9h0.9l0.3-1.5h0.9v1.5h1.2
	v0.9h-1.2l0,3c0,0.2,0,0.3,0.1,0.3s0.1,0.1,0.2,0.1s0.2,0,0.3,0h0.6v0.8c-0.1,0-0.2,0.1-0.3,0.1S38.9,31.3,38.7,31.3z M40.7,25.2V24
	h1.2v1.1H40.7z M40.7,31.2v-5.2h1.2v5.2C41.8,31.2,40.7,31.2,40.7,31.2z M43.3,31.2v-5.2h1.2v0.7c0.2-0.2,0.4-0.4,0.6-0.6
	c0.3-0.2,0.6-0.2,1-0.2c0.4,0,0.8,0.1,1.1,0.4c0.2,0.1,0.3,0.3,0.4,0.5c0.2-0.2,0.4-0.4,0.7-0.6c0.3-0.2,0.6-0.2,0.9-0.2
	c0.2,0,0.4,0,0.6,0.1c0.2,0.1,0.4,0.2,0.5,0.3c0.2,0.2,0.3,0.4,0.4,0.6c0.1,0.2,0.2,0.5,0.2,0.9v3.4h-1.2V28c0-0.3,0-0.5-0.1-0.6
	c-0.1-0.1-0.2-0.2-0.3-0.3C48.9,27,48.8,27,48.6,27c-0.1,0-0.3,0-0.4,0.1s-0.3,0.1-0.4,0.3c-0.1,0.1-0.2,0.3-0.2,0.5v3.4h-1.2v-3.5
	c0-0.2,0-0.3-0.1-0.5c-0.1-0.1-0.2-0.2-0.4-0.3C45.8,27,45.6,27,45.5,27c-0.2,0-0.3,0-0.5,0.1c-0.2,0.1-0.3,0.2-0.4,0.3
	c-0.1,0.1-0.2,0.3-0.2,0.5v3.4C44.5,31.2,43.3,31.2,43.3,31.2z M54.4,31.3c-0.5,0-0.9-0.1-1.3-0.3c-0.4-0.2-0.7-0.5-0.9-0.9
	s-0.3-0.9-0.3-1.4c0-0.5,0.1-1,0.3-1.4c0.2-0.4,0.5-0.7,0.8-1c0.4-0.2,0.8-0.4,1.3-0.4c0.5,0,0.9,0.1,1.3,0.3s0.6,0.5,0.8,0.9
	c0.2,0.4,0.3,0.8,0.3,1.4v0.4h-3.6c0,0.3,0,0.5,0.1,0.8c0.1,0.2,0.2,0.4,0.4,0.5c0.2,0.1,0.4,0.2,0.7,0.2c0.3,0,0.5-0.1,0.7-0.2
	c0.2-0.1,0.4-0.3,0.4-0.6h1.1c-0.1,0.4-0.2,0.7-0.4,0.9c-0.2,0.2-0.5,0.4-0.8,0.6S54.7,31.3,54.4,31.3z M53.1,28.2h2.4
	c0-0.2,0-0.5-0.1-0.7c-0.1-0.2-0.2-0.4-0.4-0.5s-0.4-0.2-0.7-0.2c-0.3,0-0.5,0.1-0.7,0.2c-0.2,0.1-0.3,0.3-0.4,0.5
	C53.1,27.7,53.1,28,53.1,28.2L53.1,28.2z M58.3,31.2v-4.3h-1v-0.9h1v-0.8c0-0.4,0.1-0.7,0.3-1c0.2-0.2,0.6-0.3,1-0.3h1.1l0,0.8H60
	c-0.2,0-0.3,0-0.4,0.2c-0.1,0.1-0.1,0.3-0.1,0.5v0.6h1.2v0.9h-1.2v4.3L58.3,31.2L58.3,31.2z M61.6,31.2v-5.2h1.2v1.1
	c0.1-0.3,0.2-0.5,0.4-0.7c0.3-0.4,0.9-0.6,1.4-0.6c0,0,0.1,0,0.1,0v1.2c0,0-0.1,0-0.1,0s-0.1,0-0.2,0c-0.2,0-0.5,0-0.7,0
	c-0.2,0-0.4,0.1-0.5,0.2c-0.1,0.1-0.2,0.2-0.3,0.4c-0.1,0.1-0.1,0.3-0.1,0.5v3C62.8,31.2,61.6,31.2,61.6,31.2z M67,31.3
	c-0.3,0-0.6-0.1-0.9-0.2c-0.3-0.1-0.5-0.3-0.6-0.5s-0.2-0.5-0.2-0.8c0-0.6,0.2-1,0.6-1.3c0.4-0.3,1.1-0.4,2-0.5l0.8,0v-0.4
	c0-0.3-0.1-0.5-0.2-0.6c-0.2-0.2-0.4-0.2-0.8-0.2c-0.2,0-0.5,0.1-0.7,0.2c-0.2,0.1-0.3,0.3-0.4,0.6h-1c0-0.4,0.1-0.6,0.3-0.9
	c0.2-0.2,0.4-0.4,0.8-0.5s0.7-0.2,1.1-0.2c0.5,0,0.9,0.1,1.2,0.2s0.5,0.3,0.7,0.6c0.1,0.2,0.2,0.5,0.2,0.9v3.6h-1l-0.1-0.9
	c-0.2,0.4-0.4,0.7-0.7,0.8C67.7,31.3,67.3,31.3,67,31.3L67,31.3z M67.4,30.5c0.2,0,0.3,0,0.4-0.1s0.3-0.1,0.4-0.2
	c0.1-0.1,0.2-0.2,0.3-0.3c0.1-0.1,0.1-0.2,0.1-0.4v-0.8l-0.6,0c-0.3,0-0.6,0-0.8,0.1c-0.2,0-0.4,0.2-0.5,0.3
	c-0.1,0.1-0.2,0.3-0.2,0.6c0,0.3,0.1,0.5,0.3,0.6C66.9,30.4,67.1,30.5,67.4,30.5z M71.1,31.2v-5.2h1.2v0.7c0.2-0.2,0.4-0.4,0.6-0.6
	c0.3-0.2,0.6-0.2,1-0.2c0.4,0,0.8,0.1,1.1,0.4c0.2,0.1,0.3,0.3,0.4,0.5c0.2-0.2,0.4-0.4,0.7-0.6c0.3-0.2,0.6-0.2,0.9-0.2
	c0.2,0,0.4,0,0.6,0.1c0.2,0.1,0.4,0.2,0.5,0.3c0.2,0.2,0.3,0.4,0.4,0.6c0.1,0.2,0.2,0.5,0.2,0.9v3.4h-1.2V28c0-0.3,0-0.5-0.1-0.6
	c-0.1-0.1-0.2-0.2-0.3-0.3C76.8,27,76.6,27,76.4,27c-0.1,0-0.3,0-0.4,0.1s-0.3,0.1-0.4,0.3c-0.1,0.1-0.2,0.3-0.2,0.5v3.4h-1.2v-3.5
	c0-0.2,0-0.3-0.1-0.5c-0.1-0.1-0.2-0.2-0.4-0.3C73.6,27,73.4,27,73.3,27c-0.2,0-0.3,0-0.5,0.1c-0.2,0.1-0.3,0.2-0.4,0.3
	c-0.1,0.1-0.2,0.3-0.2,0.5v3.4C72.3,31.2,71.1,31.2,71.1,31.2z M82.2,31.3c-0.5,0-0.9-0.1-1.3-0.3c-0.4-0.2-0.7-0.5-0.9-0.9
	s-0.3-0.9-0.3-1.4c0-0.5,0.1-1,0.3-1.4c0.2-0.4,0.5-0.7,0.8-1c0.4-0.2,0.8-0.4,1.3-0.4c0.5,0,0.9,0.1,1.3,0.3s0.6,0.5,0.8,0.9
	c0.2,0.4,0.3,0.8,0.3,1.4v0.4h-3.6c0,0.3,0,0.5,0.1,0.8c0.1,0.2,0.2,0.4,0.4,0.5c0.2,0.1,0.4,0.2,0.7,0.2c0.3,0,0.5-0.1,0.7-0.2
	c0.2-0.1,0.4-0.3,0.4-0.6h1.1c-0.1,0.4-0.2,0.7-0.4,0.9c-0.2,0.2-0.5,0.4-0.8,0.6S82.5,31.3,82.2,31.3z M80.9,28.2h2.4
	c0-0.2,0-0.5-0.1-0.7c-0.1-0.2-0.2-0.4-0.4-0.5s-0.4-0.2-0.7-0.2c-0.3,0-0.5,0.1-0.7,0.2c-0.2,0.1-0.3,0.3-0.4,0.5
	C80.9,27.7,80.9,28,80.9,28.2L80.9,28.2z M87.6,31.3c-0.4,0-0.7-0.1-1-0.2s-0.6-0.3-0.8-0.5c-0.2-0.2-0.4-0.6-0.4-1h1.1
	c0,0.2,0.1,0.3,0.2,0.5c0.1,0.1,0.3,0.2,0.4,0.3c0.2,0.1,0.3,0.1,0.5,0.1c0.3,0,0.6-0.1,0.8-0.2s0.3-0.3,0.3-0.5
	c0-0.1-0.1-0.3-0.2-0.4c-0.1-0.1-0.3-0.2-0.5-0.2L87,29c-0.4-0.1-0.8-0.3-1.1-0.5c-0.3-0.2-0.4-0.5-0.4-0.9c0-0.3,0.1-0.6,0.2-0.8
	c0.2-0.2,0.4-0.4,0.7-0.6c0.3-0.1,0.7-0.2,1.1-0.2c0.6,0,1.1,0.1,1.5,0.4c0.4,0.3,0.6,0.6,0.6,1.1h-1c0-0.2-0.1-0.4-0.3-0.5
	s-0.4-0.2-0.7-0.2c-0.3,0-0.5,0.1-0.7,0.2c-0.2,0.1-0.3,0.3-0.3,0.5c0,0.2,0.1,0.3,0.2,0.4c0.1,0.1,0.3,0.2,0.6,0.2l0.9,0.2
	c0.3,0.1,0.5,0.2,0.7,0.3c0.2,0.1,0.3,0.2,0.4,0.4c0.1,0.1,0.2,0.3,0.2,0.4c0,0.1,0.1,0.3,0.1,0.4c0,0.3-0.1,0.6-0.3,0.9
	c-0.2,0.2-0.4,0.4-0.7,0.5S88,31.3,87.6,31.3L87.6,31.3z M94.4,31.2l-1.9-5.2h1.1l1.2,3.6h0.1l1.2-3.6h1.1l-1.9,5.2
	C95.4,31.2,94.4,31.2,94.4,31.2z M99.5,31.3c-0.3,0-0.6-0.1-0.9-0.2s-0.5-0.3-0.6-0.5s-0.2-0.5-0.2-0.8c0-0.6,0.2-1,0.6-1.3
	c0.4-0.3,1.1-0.4,2-0.5l0.8,0v-0.4c0-0.3-0.1-0.5-0.2-0.6c-0.2-0.2-0.4-0.2-0.8-0.2c-0.2,0-0.5,0.1-0.7,0.2
	c-0.2,0.1-0.3,0.3-0.4,0.6h-1c0-0.4,0.1-0.6,0.3-0.9c0.2-0.2,0.4-0.4,0.8-0.5s0.7-0.2,1.1-0.2c0.5,0,0.9,0.1,1.2,0.2
	s0.5,0.3,0.7,0.6c0.1,0.2,0.2,0.5,0.2,0.9v3.6h-1l-0.1-0.9c-0.2,0.4-0.4,0.7-0.7,0.8C100.2,31.3,99.8,31.3,99.5,31.3z M99.9,30.5
	c0.2,0,0.3,0,0.4-0.1s0.3-0.1,0.4-0.2c0.1-0.1,0.2-0.2,0.3-0.3c0.1-0.1,0.1-0.2,0.1-0.4v-0.8l-0.6,0c-0.3,0-0.6,0-0.8,0.1
	c-0.2,0-0.4,0.2-0.5,0.3c-0.1,0.1-0.2,0.3-0.2,0.6c0,0.3,0.1,0.5,0.3,0.6C99.4,30.4,99.6,30.5,99.9,30.5z M103.6,31.2v-5.2h1.2v1.1
	c0.1-0.3,0.2-0.5,0.4-0.7c0.3-0.4,0.9-0.6,1.4-0.6c0,0,0.1,0,0.1,0v1.2c0,0-0.1,0-0.1,0s-0.1,0-0.2,0c-0.2,0-0.5,0-0.7,0
	c-0.2,0-0.4,0.1-0.5,0.2c-0.1,0.1-0.2,0.2-0.3,0.4c-0.1,0.1-0.1,0.3-0.1,0.5v3C104.8,31.2,103.6,31.2,103.6,31.2z M108.4,32.9
	c-0.3,0-0.6,0-0.9-0.2v-0.8l0.5,0c0.2,0,0.4,0,0.5,0c0.1,0,0.2-0.1,0.3-0.1c0.1-0.1,0.1-0.1,0.2-0.2c0-0.1,0.1-0.1,0.1-0.2l0.1-0.4
	l-2-5h1.2l1.4,3.7l1.4-3.7h1.2l-2.1,5.4c-0.2,0.4-0.3,0.7-0.5,0.9c-0.2,0.2-0.4,0.4-0.6,0.4C108.9,32.8,108.7,32.9,108.4,32.9
	L108.4,32.9z M112.6,31.2v-1.4h1.4v1.4H112.6z"/>
</svg>
